<svg id="Layer_1" data-name="Layer 1" xmlns="http://www.w3.org/2000/svg" viewBox="0 0 446.49 129.92"><defs><style>.cls-1{fill:#fff;}.cls-2{fill:#c82725;}.cls-3{fill:#266db5;}</style></defs><title>ЦКИИТ логотип финал</title><polygon class="cls-1" points="121.36 11.61 117.45 11.61 117.45 38.99 110.43 38.99 110.43 11.61 106.61 11.61 106.61 42.55 119.89 42.55 119.89 46.64 123.67 46.64 123.67 39.08 121.36 39.08 121.36 11.61"/><polygon class="cls-1" points="139.12 38.99 129.98 38.99 129.98 28.62 137.42 28.62 137.42 25.1 129.98 25.1 129.98 15.17 139.12 15.17 139.12 11.61 126.11 11.61 126.11 42.55 139.12 42.55 139.12 38.99"/><polygon class="cls-1" points="152.67 42.55 156.53 42.55 156.53 11.61 152.67 11.61 152.67 25.32 145.65 25.32 145.65 11.61 141.78 11.61 141.78 42.55 145.65 42.55 145.65 28.84 152.67 28.84 152.67 42.55"/><polygon class="cls-1" points="164.2 42.55 168.06 42.55 168.06 15.17 173.68 15.17 173.68 11.61 158.59 11.61 158.59 15.17 164.2 15.17 164.2 42.55"/><path class="cls-1" d="M517-188.52h2.77c2.5,0,4.36-.65,5.55-1.92a8.08,8.08,0,0,0,1.78-5.67v-3.66a8.7,8.7,0,0,0-1.66-5.61c-1.12-1.37-2.93-2.07-5.41-2.07h-6.9v30.94H517v-12Zm6.28-7.37a4.25,4.25,0,0,1-.85,3,3.6,3.6,0,0,1-2.66.87H517v-11.85h3a3,3,0,0,1,2.49,1,4.9,4.9,0,0,1,.76,3v4Z" transform="translate(-337.37 219.05)"/><polygon class="cls-1" points="202.47 32.2 204.03 29.57 210.43 42.55 214.43 42.55 206.36 25.74 214.2 11.61 210.22 11.61 202.5 25.64 202.5 11.61 198.63 11.61 198.63 42.55 202.5 42.55 202.47 32.2"/><path class="cls-1" d="M560.74-176.2a6.72,6.72,0,0,0,5.45-2.17A8.7,8.7,0,0,0,568-184.1v-15.76a8.67,8.67,0,0,0-1.8-5.74,6.75,6.75,0,0,0-5.45-2.15,6.69,6.69,0,0,0-5.43,2.15,8.74,8.74,0,0,0-1.77,5.74v15.76a8.76,8.76,0,0,0,1.77,5.72A6.65,6.65,0,0,0,560.74-176.2ZM564.12-200v16.11a5.08,5.08,0,0,1-.82,3.1,3,3,0,0,1-2.55,1.06,3,3,0,0,1-2.53-1.06,5,5,0,0,1-.84-3.1V-200a5,5,0,0,1,.84-3.1,3,3,0,0,1,2.53-1.06,3,3,0,0,1,2.55,1.06A5.09,5.09,0,0,1,564.12-200Z" transform="translate(-337.37 219.05)"/><polygon class="cls-1" points="236.76 20.3 241.38 42.51 245.03 42.51 249.43 20.21 249.43 42.55 253.13 42.55 253.13 11.61 247.95 11.61 243.31 34.99 238.5 11.61 233.33 11.61 233.33 42.55 236.76 42.55 236.76 20.3"/><polygon class="cls-1" points="260 15.17 267.02 15.17 267.02 42.55 270.88 42.55 270.88 11.61 256.14 11.61 256.14 42.55 260 42.55 260 15.17"/><polygon class="cls-1" points="273.9 42.55 286.9 42.55 286.9 38.99 277.76 38.99 277.76 28.62 285.2 28.62 285.2 25.1 277.76 25.1 277.76 15.17 286.9 15.17 286.9 11.61 273.9 11.61 273.9 42.55"/><polygon class="cls-1" points="294.23 42.55 298.09 42.55 298.09 15.17 303.7 15.17 303.7 11.61 288.61 11.61 288.61 15.17 294.23 15.17 294.23 42.55"/><polygon class="cls-1" points="318.77 38.99 309.63 38.99 309.63 28.62 317.07 28.62 317.07 25.1 309.63 25.1 309.63 15.17 318.77 15.17 318.77 11.61 305.76 11.61 305.76 42.55 318.77 42.55 318.77 38.99"/><polygon class="cls-1" points="325.3 28.84 332.31 28.84 332.31 42.55 336.18 42.55 336.18 11.61 332.31 11.61 332.31 25.32 325.3 25.32 325.3 11.61 321.43 11.61 321.43 42.55 325.3 42.55 325.3 28.84"/><polygon class="cls-1" points="352.77 46.64 356.55 46.64 356.55 39.08 354.24 39.08 354.24 11.61 350.34 11.61 350.34 38.99 343.32 38.99 343.32 11.61 339.5 11.61 339.5 42.55 352.77 42.55 352.77 46.64"/><polygon class="cls-1" points="367.47 28.33 370.32 19.55 370.32 42.55 373.83 42.55 373.83 11.61 369.64 11.61 364.71 26.09 362.47 33.07 362.47 11.61 359 11.61 359 42.55 362.93 42.55 367.47 28.33"/><path class="cls-1" d="M718.18-210.13a5,5,0,0,0,3.58,1.2,5.19,5.19,0,0,0,3.62-1.19,4.27,4.27,0,0,0,1.32-3.31v-0.23h-2.54l0,0.22a1.92,1.92,0,0,1-.7,1.56,3,3,0,0,1-1.67.44,2.88,2.88,0,0,1-1.65-.44,2,2,0,0,1-.68-1.56l0-.22h-2.6v0.25A4.63,4.63,0,0,0,718.18-210.13Z" transform="translate(-337.37 219.05)"/><polygon class="cls-1" points="391.63 42.55 391.63 11.61 387.44 11.61 382.65 25.7 380.27 33.07 380.27 11.61 376.8 11.61 376.8 42.55 380.73 42.55 385.53 27.72 388.12 19.58 388.12 42.55 391.63 42.55"/><polygon class="cls-1" points="106.31 86.08 110.17 86.08 110.17 58.7 117.19 58.7 117.19 86.08 121.06 86.08 121.06 55.14 106.31 55.14 106.31 86.08"/><path class="cls-1" d="M473.82-134.84a8.7,8.7,0,0,0,1.79-5.72v-15.76a8.67,8.67,0,0,0-1.8-5.74,6.75,6.75,0,0,0-5.45-2.15,6.68,6.68,0,0,0-5.43,2.15,8.74,8.74,0,0,0-1.77,5.74v15.76a8.76,8.76,0,0,0,1.77,5.72,6.65,6.65,0,0,0,5.43,2.18A6.72,6.72,0,0,0,473.82-134.84Zm-2.07-21.65v16.11a5.08,5.08,0,0,1-.82,3.1,3,3,0,0,1-2.55,1.06,3,3,0,0,1-2.53-1.06,5,5,0,0,1-.84-3.1V-156.5a5,5,0,0,1,.84-3.1,3,3,0,0,1,2.53-1.06,3,3,0,0,1,2.55,1.06A5.08,5.08,0,0,1,471.75-156.5Z" transform="translate(-337.37 219.05)"/><polygon class="cls-1" points="151.22 76.6 151.22 55.14 147.75 55.14 147.75 86.08 151.68 86.08 156.22 71.86 159.07 63.08 159.07 86.08 162.58 86.08 162.58 55.14 158.39 55.14 153.46 69.62 151.22 76.6"/><polygon class="cls-1" points="175.49 78.52 170.68 55.14 165.51 55.14 165.51 86.08 168.94 86.08 168.94 63.84 173.56 86.04 177.21 86.04 181.61 63.74 181.61 86.08 185.31 86.08 185.31 55.14 180.13 55.14 175.49 78.52"/><polygon class="cls-1" points="188.32 86.08 192.18 86.08 192.18 58.7 199.2 58.7 199.2 86.08 203.07 86.08 203.07 55.14 188.32 55.14 188.32 86.08"/><path class="cls-1" d="M550.38-164.22a6.68,6.68,0,0,0-5.43,2.15,8.74,8.74,0,0,0-1.77,5.74v15.76a8.76,8.76,0,0,0,1.77,5.72,6.65,6.65,0,0,0,5.43,2.18,6.72,6.72,0,0,0,5.45-2.17,8.7,8.7,0,0,0,1.79-5.72v-15.76a8.67,8.67,0,0,0-1.8-5.74A6.75,6.75,0,0,0,550.38-164.22ZM547-140.39V-156.5a5,5,0,0,1,.85-3.1,3,3,0,0,1,2.53-1.06,3,3,0,0,1,2.55,1.06,5.09,5.09,0,0,1,.82,3.1v16.11a5.08,5.08,0,0,1-.82,3.1,3,3,0,0,1-2.55,1.06,3,3,0,0,1-2.53-1.06A5,5,0,0,1,547-140.39Z" transform="translate(-337.37 219.05)"/><path class="cls-1" d="M564.24-145H567c2.5,0,4.36-.65,5.55-1.92a8.08,8.08,0,0,0,1.78-5.67v-3.66a8.69,8.69,0,0,0-1.66-5.61c-1.11-1.37-2.93-2.07-5.41-2.07h-6.89V-133h3.86v-12Zm6.28-7.37a4.24,4.24,0,0,1-.85,3,3.6,3.6,0,0,1-2.66.87h-2.77v-11.85h3a3,3,0,0,1,2.49,1,4.9,4.9,0,0,1,.76,3v4Z" transform="translate(-337.37 219.05)"/><polygon class="cls-1" points="247.68 86.08 247.68 58.7 253.3 58.7 253.3 55.14 238.2 55.14 238.2 58.7 243.82 58.7 243.82 86.08 247.68 86.08"/><path class="cls-1" d="M599.66-132.67a6.72,6.72,0,0,0,5.45-2.17,8.7,8.7,0,0,0,1.79-5.72v-15.76a8.67,8.67,0,0,0-1.8-5.74,6.75,6.75,0,0,0-5.45-2.15,6.68,6.68,0,0,0-5.43,2.15,8.74,8.74,0,0,0-1.77,5.74v15.76a8.76,8.76,0,0,0,1.77,5.72A6.65,6.65,0,0,0,599.66-132.67ZM603-156.5v16.11a5.08,5.08,0,0,1-.82,3.1,3,3,0,0,1-2.55,1.06,3,3,0,0,1-2.53-1.06,5,5,0,0,1-.84-3.1V-156.5a5,5,0,0,1,.84-3.1,3,3,0,0,1,2.53-1.06,3,3,0,0,1,2.55,1.06A5.08,5.08,0,0,1,603-156.5Z" transform="translate(-337.37 219.05)"/><path class="cls-1" d="M616.55-164.22c-2.41,0-4.21.72-5.34,2.13a9,9,0,0,0-1.69,5.72v2.15h3.6v-2.28a5.08,5.08,0,0,1,.82-3.1,2.92,2.92,0,0,1,2.51-1.06,2.88,2.88,0,0,1,2.53,1.08,5.82,5.82,0,0,1,.8,3.39v1.39a4.13,4.13,0,0,1-1,2.93,3.3,3.3,0,0,1-2.55,1h-1.85v3.52h1.67c2.48,0,3.68,1.4,3.68,4.29v2.39a5.73,5.73,0,0,1-.8,3.34,2.88,2.88,0,0,1-2.53,1.08,2.91,2.91,0,0,1-2.51-1.06,5.08,5.08,0,0,1-.82-3.1v-3.37h-3.65v3.19a8.9,8.9,0,0,0,1.73,5.72,6.46,6.46,0,0,0,5.34,2.18,6.52,6.52,0,0,0,5.38-2.18,8.92,8.92,0,0,0,1.73-5.72V-143a8.52,8.52,0,0,0-.92-4.07,5,5,0,0,0-2.43-2.21,5.39,5.39,0,0,0,2.39-2.2,8.17,8.17,0,0,0,1-4.1v-0.78a8.91,8.91,0,0,0-1.73-5.72A6.52,6.52,0,0,0,616.55-164.22Z" transform="translate(-337.37 219.05)"/><path class="cls-1" d="M631.5-163.91L625.58-133h3.61l1.18-6.14h7.32l1.17,6.14h3.87l-5.92-30.94H631.5Zm-0.61,21.42L634-158.61l3.15,16.11h-6.22Z" transform="translate(-337.37 219.05)"/><polygon class="cls-1" points="317.44 78.52 312.63 55.14 307.46 55.14 307.46 86.08 310.89 86.08 310.89 63.84 315.51 86.04 319.16 86.04 323.57 63.74 323.57 86.08 327.26 86.08 327.26 55.14 322.08 55.14 317.44 78.52"/><polygon class="cls-1" points="330.27 86.08 343.28 86.08 343.28 82.52 334.13 82.52 334.13 72.15 341.58 72.15 341.58 68.63 334.13 68.63 334.13 58.7 343.28 58.7 343.28 55.14 330.27 55.14 330.27 86.08"/><polygon class="cls-1" points="368.22 55.14 364.4 55.14 364.4 82.52 358.99 82.52 358.99 55.14 355.17 55.14 355.17 82.52 349.81 82.52 349.81 55.14 345.94 55.14 345.94 86.08 366.83 86.08 366.83 90.17 370.57 90.17 370.57 82.61 368.22 82.61 368.22 55.14"/><polygon class="cls-1" points="373.02 86.08 386.02 86.08 386.02 82.52 376.88 82.52 376.88 72.15 384.32 72.15 384.32 68.63 376.88 68.63 376.88 58.7 386.02 58.7 386.02 55.14 373.02 55.14 373.02 86.08"/><polygon class="cls-1" points="399.57 68.85 392.55 68.85 392.55 55.14 388.69 55.14 388.69 86.08 392.55 86.08 392.55 72.37 399.57 72.37 399.57 86.08 403.43 86.08 403.43 55.14 399.57 55.14 399.57 68.85"/><polygon class="cls-1" points="412.16 69.62 409.92 76.6 409.92 55.14 406.45 55.14 406.45 86.08 410.38 86.08 414.91 71.86 417.76 63.08 417.76 86.08 421.28 86.08 421.28 55.14 417.09 55.14 412.16 69.62"/><path class="cls-1" d="M782.08-162.07a6.68,6.68,0,0,0-5.43-2.15,6.75,6.75,0,0,0-5.45,2.15,8.67,8.67,0,0,0-1.8,5.74v6.12h-3.93v-13.71h-3.86V-133h3.86v-13.71h3.93v6.12a8.7,8.7,0,0,0,1.79,5.72,6.72,6.72,0,0,0,5.45,2.17,6.65,6.65,0,0,0,5.43-2.18,8.77,8.77,0,0,0,1.77-5.72v-15.76A8.75,8.75,0,0,0,782.08-162.07Zm-8.8,21.68V-156.5a5.09,5.09,0,0,1,.82-3.1,3,3,0,0,1,2.55-1.06,3,3,0,0,1,2.53,1.06,5,5,0,0,1,.85,3.1v16.11a5,5,0,0,1-.85,3.1,3,3,0,0,1-2.53,1.06,3,3,0,0,1-2.55-1.06A5.08,5.08,0,0,1,773.27-140.39Z" transform="translate(-337.37 219.05)"/><path class="cls-1" d="M454.51-105.92a4.37,4.37,0,0,0,2.27-2,8.8,8.8,0,0,0,.81-4v-1.44a7.58,7.58,0,0,0-1.59-5.23c-1.06-1.16-2.83-1.75-5.27-1.75h-7.07v30.94h7.24c2.44,0,4.27-.65,5.44-1.93a7.8,7.8,0,0,0,1.76-5.45v-2.57a8.92,8.92,0,0,0-1-4.34A4.89,4.89,0,0,0,454.51-105.92Zm-4.6-1.53h-2.38v-9.37h3.12a2.88,2.88,0,0,1,2.4.89,4.71,4.71,0,0,1,.71,2.88v1.79c0,1.51-.32,2.54-0.94,3A4.62,4.62,0,0,1,449.91-107.45Zm-2.38,3.56h2.73a4.37,4.37,0,0,1,3.08.92,4.67,4.67,0,0,1,.95,3.38v2.7c0,2.62-1.11,3.9-3.38,3.9h-3.38v-10.89Z" transform="translate(-337.37 219.05)"/><path class="cls-1" d="M474.29-120.69a8,8,0,0,0-3.12.56,5.9,5.9,0,0,0-2.22,1.61,6.77,6.77,0,0,0-1.31,2.5,11.47,11.47,0,0,0-.42,3.22V-97A8.9,8.9,0,0,0,469-91.31a6.46,6.46,0,0,0,5.34,2.18,6.52,6.52,0,0,0,5.38-2.18A8.91,8.91,0,0,0,481.41-97v-4h-3.69v4.2a5.19,5.19,0,0,1-.8,3.1,2.91,2.91,0,0,1-2.53,1.06,2.92,2.92,0,0,1-2.51-1.06,5.08,5.08,0,0,1-.82-3.1V-113a5.08,5.08,0,0,1,.82-3.1,2.92,2.92,0,0,1,2.51-1.06,2.91,2.91,0,0,1,2.53,1.06,5.2,5.2,0,0,1,.8,3.1v3.15h3.69v-3a8.91,8.91,0,0,0-1.73-5.72A6.51,6.51,0,0,0,474.29-120.69Z" transform="translate(-337.37 219.05)"/><path class="cls-1" d="M498.67-116.81h-1.9v-3.57h-3.82v3.57h-1.9c-2.53,0-4.4.69-5.56,2.06a8.75,8.75,0,0,0-1.73,5.79v8.31a8.74,8.74,0,0,0,1.73,5.79c1.16,1.37,3,2.06,5.56,2.06h1.9v3.35h3.82v-3.35h1.9c2.53,0,4.4-.69,5.56-2.06a8.76,8.76,0,0,0,1.73-5.79V-109a8.76,8.76,0,0,0-1.73-5.79C503.06-116.12,501.19-116.81,498.67-116.81Zm-1.9,3.47h1.9a3.28,3.28,0,0,1,2.67,1,5,5,0,0,1,.84,3.16v8.75c0,2.83-1.15,4.2-3.51,4.2h-1.9v-17.12Zm-9.19,4.16a5,5,0,0,1,.82-3.16,3.21,3.21,0,0,1,2.65-1h1.9v17.12h-1.9a3.18,3.18,0,0,1-2.65-1,5.15,5.15,0,0,1-.82-3.19v-8.75Z" transform="translate(-337.37 219.05)"/><polygon class="cls-1" points="171.43 129.61 184.44 129.61 184.44 126.05 175.29 126.05 175.29 115.68 182.74 115.68 182.74 112.16 175.29 112.16 175.29 102.23 184.44 102.23 184.44 98.67 171.43 98.67 171.43 129.61"/><path class="cls-1" d="M531.36-120.38h-6.89v30.94h3.86v-12h2.77c2.5,0,4.36-.65,5.55-1.92a8.08,8.08,0,0,0,1.78-5.67v-3.66a8.7,8.7,0,0,0-1.66-5.61C535.65-119.69,533.83-120.38,531.36-120.38Zm-3,3.56h3a3,3,0,0,1,2.49,1,4.9,4.9,0,0,1,.76,3v4a4.25,4.25,0,0,1-.85,3,3.6,3.6,0,0,1-2.66.87h-2.77v-11.85Z" transform="translate(-337.37 219.05)"/><polygon class="cls-1" points="203.25 129.61 216.25 129.61 216.25 126.05 207.11 126.05 207.11 115.68 214.56 115.68 214.56 112.16 207.11 112.16 207.11 102.23 216.25 102.23 216.25 98.67 203.25 98.67 203.25 129.61"/><polygon class="cls-1" points="231.81 111.93 229.14 120.15 229.14 98.67 225.67 98.67 225.67 129.61 229.6 129.61 234.18 115.3 236.99 106.62 236.99 129.61 240.5 129.61 240.5 98.67 236.31 98.67 231.81 111.93"/><polygon class="cls-1" points="259.04 98.67 255.06 98.67 247.34 112.7 247.34 98.67 243.47 98.67 243.47 129.61 247.34 129.61 247.3 119.27 248.87 116.64 255.27 129.61 259.27 129.61 251.19 112.8 259.04 98.67"/><polygon class="cls-1" points="260.32 102.23 265.93 102.23 265.93 129.61 269.8 129.61 269.8 102.23 275.41 102.23 275.41 98.67 260.32 98.67 260.32 102.23"/><polygon class="cls-1" points="43.42 26.64 43.42 24 52.42 24 52.42 36.71 43.42 36.71 43.42 34.06 40.25 34.06 40.25 49.41 57.73 49.41 57.73 56.83 55.08 56.83 55.08 61.58 63.54 61.58 63.54 56.83 60.9 56.83 60.9 49.41 78.37 49.41 78.37 34.06 75.21 34.06 75.21 36.71 66.21 36.71 66.21 24 75.21 24 75.21 26.64 78.37 26.64 78.37 11.29 40.25 11.29 40.25 26.64 43.42 26.64"/><polygon class="cls-1" points="45.54 31.94 45.54 34.58 50.29 34.58 50.29 26.13 45.54 26.13 45.54 28.77 38.12 28.77 38.12 11.29 20.71 11.29 20.71 4.75 23.36 4.75 23.36 0 14.9 0 14.9 4.75 17.54 4.75 17.54 11.29 0 11.29 0 26.64 3.17 26.64 3.17 24 12.17 24 12.17 36.71 3.17 36.71 3.17 34.06 0 34.06 0 49.42 15.42 49.42 15.42 47.13 12.77 47.13 12.77 38.12 25.48 38.12 25.48 47.13 22.84 47.13 22.84 49.42 38.12 49.42 38.12 49.41 38.12 31.94 45.54 31.94"/><polygon class="cls-2" points="40.25 109.27 40.25 109.27 32.83 109.27 32.83 109.27 32.83 106.63 28.08 106.63 28.08 115.08 32.83 115.08 32.83 112.44 32.83 112.44 40.25 112.44 40.25 112.44 40.25 129.91 78.37 129.91 78.37 114.56 75.21 114.56 75.21 117.21 66.21 117.21 66.21 104.5 75.21 104.5 75.21 107.14 78.37 107.14 78.37 91.79 63.02 91.79 63.02 94.96 65.67 94.96 65.67 103.96 52.96 103.96 52.96 94.96 55.6 94.96 55.6 91.79 40.25 91.79 40.25 109.27"/><polygon class="cls-3" points="40.25 89.67 57.73 89.67 57.73 97.08 55.08 97.08 55.08 101.83 63.54 101.83 63.54 97.08 60.9 97.08 60.9 89.67 78.37 89.67 78.37 51.54 63.02 51.54 63.02 54.71 65.67 54.71 65.67 63.71 52.96 63.71 52.96 54.71 55.6 54.71 55.6 51.54 40.25 51.54 40.25 51.54 40.25 89.67"/><polygon class="cls-3" points="38.12 51.54 20.71 51.54 20.71 45 23.36 45 23.36 40.25 14.9 40.25 14.9 45 17.54 45 17.54 51.54 0 51.54 0 66.89 3.25 66.89 3.25 64.25 12.25 64.25 12.25 76.96 3.25 76.96 3.25 74.31 0 74.31 0 89.67 15.35 89.67 15.35 86.5 12.71 86.5 12.71 77.5 25.42 77.5 25.42 86.5 22.77 86.5 22.77 89.67 38.12 89.67 38.12 89.67 38.12 51.54"/><polygon class="cls-2" points="34.96 117.21 34.96 117.21 25.96 117.21 25.96 117.21 25.96 104.5 25.96 104.5 34.96 104.5 34.96 104.5 34.96 107.14 38.12 107.14 38.12 91.79 20.64 91.79 20.64 84.37 23.29 84.37 23.29 79.63 14.83 79.63 14.83 84.37 17.48 84.37 17.48 91.79 0 91.79 0 129.92 15.35 129.92 15.35 126.75 12.71 126.75 12.71 117.75 25.42 117.75 25.42 126.75 22.77 126.75 22.77 129.92 38.12 129.92 38.12 114.56 34.96 114.56 34.96 117.21"/></svg>