<svg width="280" height="32" viewBox="0 0 280 32" fill="none" xmlns="http://www.w3.org/2000/svg">
<path fill-rule="evenodd" clip-rule="evenodd" d="M184.069 16.0266C184.069 9.79596 179.971 6.07497 173.825 6.04724C167.6 6.04724 163.582 10.151 163.582 15.9712C163.582 22.2295 167.679 25.9518 173.825 25.9518C180.052 25.9518 184.069 21.843 184.069 16.0266ZM180.465 15.9989C180.465 20.0511 177.922 22.7811 173.853 22.7811V22.7773C169.482 22.7497 167.187 19.7728 167.187 15.9989C167.187 11.9744 169.703 9.24444 173.8 9.21671C178.171 9.24444 180.465 12.2212 180.465 15.9989Z" fill="#FF0D65"/>
<path fill-rule="evenodd" clip-rule="evenodd" d="M225.505 16.0266C225.505 9.79596 221.408 6.07497 215.262 6.04724C209.035 6.04724 205.02 10.151 205.018 15.9712C205.018 22.2295 209.116 25.9518 215.262 25.9518C221.489 25.9518 225.505 21.843 225.505 16.0266ZM221.902 15.9989C221.902 20.0511 219.359 22.7811 215.289 22.7811L215.29 22.7773C210.92 22.7497 208.625 19.7728 208.624 15.9989C208.624 11.9744 211.139 9.24444 215.237 9.21671C219.607 9.24444 221.902 12.2212 221.902 15.9989Z" fill="#FF0D65"/>
<path fill-rule="evenodd" clip-rule="evenodd" d="M229.085 25.6446V6.34692H237.388C241.65 6.34692 243.835 7.94488 243.835 11.1433C243.835 13.3482 242.961 14.8102 240.994 15.5821C243.343 15.9951 244.409 17.5113 244.409 20.0196C244.409 24.0177 241.568 25.6446 236.923 25.6446H229.085ZM236.897 14.5067C239.055 14.5067 240.42 13.5422 240.42 11.8875C240.42 10.3437 239.409 9.51639 236.979 9.51639H232.5V14.5067H236.897ZM237.146 22.4738C239.766 22.4738 240.97 21.6188 240.97 19.7715C240.97 17.9243 239.605 17.2078 237.201 17.2078H232.503V22.4738H237.146Z" fill="#FF0D65"/>
<path fill-rule="evenodd" clip-rule="evenodd" d="M254.297 12.356H251.701V6.34692H248.288V25.6446H254.329C259.901 25.6446 262.906 23.383 262.906 18.8901C262.906 14.5344 260.36 12.356 254.297 12.356ZM251.701 22.4738V15.5267H254.597C257.93 15.5267 259.377 16.4359 259.377 18.807C259.377 21.4262 257.739 22.4738 254.542 22.4738H251.701Z" fill="#FF0D65"/>
<path d="M269.894 17.2909H278.69L278.694 14.1201H269.898V9.51639H279.704V6.34692H266.479V25.6446H280V22.4738H269.894V17.2909Z" fill="#FF0D65"/>
<path fill-rule="evenodd" clip-rule="evenodd" d="M191.057 19.6343V25.6446H187.642V6.34692H194.005C200.041 6.34692 202.614 8.52413 202.614 12.8798C202.614 17.374 199.61 19.6343 194.005 19.6343H191.057ZM191.057 9.51639V16.4635H194.252C197.421 16.4635 199.059 15.4159 199.059 12.7979C199.059 10.4268 197.64 9.51639 194.307 9.51639H191.057Z" fill="#FF0D65"/>
<path fill-rule="evenodd" clip-rule="evenodd" d="M144.215 22.4738C145.307 19.8547 146.099 16.2155 146.182 10.3437L146.236 6.34692H159.675V22.4738H161.887V29.2283H158.692V25.6446H145.334V29.2283H142.139V22.4738H144.215ZM147.548 22.4738H156.26V9.51639H149.351V10.4268C149.241 15.4713 148.636 19.4417 147.548 22.4738Z" fill="#FF0D65"/>
<path d="M132.305 6.07128C129.273 6.07128 127.061 6.98047 125.968 7.78003L125.965 12.5765C127.086 10.8677 129.408 9.18664 132.302 9.24075C134.324 9.29615 135.908 10.0126 135.908 11.8045C135.908 13.2388 135.061 14.4237 132.603 14.4237H129.733V17.2633H132.629C135.606 17.2633 136.863 18.0629 136.863 19.7717C136.863 21.7298 135.006 22.722 132.684 22.7498C129.159 22.7774 126.674 21.2337 125.5 19.2755V23.5217C126.516 24.6789 129.159 25.9482 132.629 25.9205C137.765 25.8928 140.414 23.329 140.414 19.9933C140.414 17.456 138.997 15.9121 136.047 15.4714C138.26 14.6718 139.434 13.1834 139.434 10.9231C139.434 7.532 136.593 6.09901 132.305 6.07128Z" fill="#FF0D65"/>
<path d="M51.8523 22.193C53.0938 22.2 54.3169 21.8922 55.4082 21.2982L56.3211 20.8021L58.9864 22.7728C57.2278 24.6623 54.6359 25.7008 51.6668 25.7008C48.8283 25.7008 46.234 24.6898 44.3783 22.869C42.5225 21.0483 41.5 18.5177 41.5 15.7684C41.5 13.0191 42.5375 10.526 44.3895 8.77027C46.2415 7.01451 48.8346 6.04724 51.6929 6.04724C54.3283 6.04724 56.6325 6.8508 58.3574 8.37164L58.553 8.53785L55.5987 10.7223C54.5071 9.93897 53.1942 9.52691 51.8523 9.54631C48.1396 9.54631 45.4444 12.2056 45.4444 15.8696C45.4444 19.5337 48.1396 22.193 51.8523 22.193Z" fill="#21A038"/>
<path fill-rule="evenodd" clip-rule="evenodd" d="M71.608 13.7588H66.5962V9.48237H74.5958L78.9077 6.29449H62.4774V25.4457H71.0712C75.8949 25.4457 78.661 23.2525 78.661 19.4297C78.666 15.7732 76.1589 13.7588 71.608 13.7588ZM70.8906 22.2565H66.5962V16.9479H70.8906C73.5061 16.9479 74.7216 17.8364 74.7216 19.6022C74.7216 21.4068 73.4276 22.2565 70.8906 22.2565Z" fill="#21A038"/>
<path d="M96.9321 6.29449L92.6203 9.48237H86.6196V14.1649H95.4163V17.3541H86.6196V22.2565H96.9321V25.4457H82.5008V6.29449H96.9321Z" fill="#21A038"/>
<path fill-rule="evenodd" clip-rule="evenodd" d="M100.767 6.29449H108.625C113.638 6.29449 116.75 8.92002 116.75 13.1477C116.75 17.3753 113.635 20.0208 108.622 20.0208H104.886V25.4457H100.767V6.29449ZM104.886 16.8317H108.536C111.175 16.8317 112.627 15.527 112.627 13.1577C112.627 10.7883 111.175 9.48237 108.536 9.48237H104.886V16.8317Z" fill="#21A038"/>
<path d="M28.4706 6.2168C29.2207 7.19304 29.8622 8.25975 30.3751 9.39682L15.8942 20.1418L9.84375 16.3235V11.73L15.8942 15.5483L28.4706 6.2168Z" fill="#21A038"/>
<path d="M3.67171 15.9994C3.67171 15.7934 3.67671 15.5886 3.68669 15.385L0.019969 15.2003C0.00748866 15.4654 0 15.7318 0 15.9994C0 20.417 1.77845 24.4175 4.65516 27.3136L7.25482 24.6964C5.0433 22.4675 3.67171 19.3918 3.67171 15.9994Z" fill="url(#paint0_linear)"/>
<path d="M15.8928 3.69516C16.0975 3.69516 16.3009 3.7027 16.5031 3.71275L16.6866 0.0201033C16.4233 0.00753903 16.1587 0 15.8928 0C11.5048 0 7.53101 1.79041 4.6543 4.68648L7.25395 7.30362C9.46796 5.07472 12.5231 3.69516 15.8928 3.69516Z" fill="url(#paint1_linear)"/>
<path d="M15.8934 28.3036C15.6887 28.3036 15.4853 28.2986 15.2831 28.2885L15.0996 31.9799C15.3629 31.9925 15.6275 32 15.8934 32C20.2814 32 24.2552 30.2096 27.1319 27.3136L24.5322 24.6964C22.3182 26.9228 19.263 28.3036 15.8934 28.3036Z" fill="url(#paint2_linear)"/>
<path d="M22.7849 5.8424L25.8763 3.54941C23.1481 1.3293 19.6761 0 15.8945 0V3.69642C18.4493 3.69516 20.8218 4.48922 22.7849 5.8424Z" fill="url(#paint3_linear)"/>
<path d="M31.7865 15.9994C31.7865 15.0206 31.6991 14.0632 31.5319 13.1322L28.111 15.6702C28.1135 15.7795 28.116 15.8888 28.116 15.9981C28.116 19.6104 26.5609 22.8645 24.0898 25.1173L26.5572 27.8626C29.7684 24.9364 31.7865 20.7047 31.7865 15.9994Z" fill="#21A038"/>
<path d="M15.8946 28.3036C12.3065 28.3036 9.07405 26.7381 6.83633 24.2504L4.10938 26.7343C7.01729 29.9684 11.2207 32 15.8946 32V28.3036Z" fill="url(#paint4_linear)"/>
<path d="M7.69787 6.88019L5.23051 4.13489C2.01807 7.06237 0 11.294 0 15.9994H3.67171C3.67296 12.3859 5.22676 9.13296 7.69787 6.88019Z" fill="url(#paint5_linear)"/>
<defs>
<linearGradient id="paint0_linear" x1="5.39882" y1="26.8502" x2="1.33891" y2="15.1932" gradientUnits="userSpaceOnUse">
<stop offset="0.1444" stop-color="#F2E913"/>
<stop offset="0.3037" stop-color="#E7E518"/>
<stop offset="0.5823" stop-color="#CADB26"/>
<stop offset="0.891" stop-color="#A3CD39"/>
</linearGradient>
<linearGradient id="paint1_linear" x1="5.70366" y1="5.33991" x2="16.0533" y2="1.42222" gradientUnits="userSpaceOnUse">
<stop offset="0.0592" stop-color="#0FA8E0"/>
<stop offset="0.5385" stop-color="#0099F9"/>
<stop offset="0.9234" stop-color="#0291EB"/>
</linearGradient>
<linearGradient id="paint2_linear" x1="14.8573" y1="29.7691" x2="26.5488" y2="27.1444" gradientUnits="userSpaceOnUse">
<stop offset="0.1226" stop-color="#A3CD39"/>
<stop offset="0.2846" stop-color="#86C339"/>
<stop offset="0.8693" stop-color="#21A038"/>
</linearGradient>
<linearGradient id="paint3_linear" x1="15.1264" y1="1.23807" x2="25.1275" y2="4.30323" gradientUnits="userSpaceOnUse">
<stop offset="0.0566" stop-color="#0291EB"/>
<stop offset="0.79" stop-color="#0C8ACB"/>
</linearGradient>
<linearGradient id="paint4_linear" x1="5.03032" y1="26.2839" x2="15.9218" y2="30.3261" gradientUnits="userSpaceOnUse">
<stop offset="0.1324" stop-color="#F2E913"/>
<stop offset="0.2977" stop-color="#EBE716"/>
<stop offset="0.5306" stop-color="#D9E01F"/>
<stop offset="0.8023" stop-color="#BBD62D"/>
<stop offset="0.9829" stop-color="#A3CD39"/>
</linearGradient>
<linearGradient id="paint5_linear" x1="1.36842" y1="16.4471" x2="5.78441" y2="5.03619" gradientUnits="userSpaceOnUse">
<stop offset="0.0698" stop-color="#A3CD39"/>
<stop offset="0.2599" stop-color="#81C55F"/>
<stop offset="0.9216" stop-color="#0FA8E0"/>
</linearGradient>
</defs>
</svg>
