<svg id="Layer_1" xmlns="http://www.w3.org/2000/svg" width="333" height="48.8"><style>.st0{fill:#19815a}.st1{enable-background:new}.st2{fill:#ff7d3b}</style><g transform="translate(-162 -16)"><path id="ygb9a" class="st0" d="M227.8 30.9v8.3c0 2.2.3 3.7.8 4.6.6.9 1.6 1.3 3.1 1.3h1.5V30.8h9.8v22h-9.8v-5.5h-3.1c-4.3 0-7.4-.7-9.3-2.1-1.9-1.3-3-3.4-2.9-5.7v-8.7l9.9.1zm41.7 0h3.5l-12.2 20.5c-.5.8-1.2 1.5-2 1.9s-1.7.5-3 .5c-1.4 0-2.7-.3-4-.9l1.4-2.3c.9.6 1.7.9 2.5.9.9 0 1.5-.3 1.8-1l.3-.5L245 30.8h11.2l7.2 10.4 6.1-10.3zM266 52.8v-2.3h2.7l11.1-19.7h2.5l11 19.7h2.8v2.3H266zm6-1h10l-5-9-5 9zm41.5-20.1c1.7.6 3.2 1.3 4.4 2.4 1.2 1 2.3 2.2 3 3.7.7 1.4 1.1 3 1.1 4.6 0 1.7-.4 3.2-1.1 4.6s-1.7 2.7-3 3.7c-1.2 1-2.7 1.9-4.4 2.4-1.7.6-3.5.9-5.6.9-2 0-3.8-.3-5.5-.9-1.6-.5-3.1-1.3-4.4-2.4-1.2-1-2.2-2.2-2.9-3.7-.7-1.4-1.1-3-1.1-4.6 0-1.7.4-3.2 1.1-4.6.7-1.4 1.7-2.7 2.9-3.7s2.7-1.9 4.4-2.4c1.8-.6 3.7-.9 5.5-.9 2.1 0 3.9.3 5.6.9zm-1.7 5.4c-.1-1-.3-1.9-.7-2.8-.3-.6-.7-1-1.3-1.1-.5-.1-1.1-.3-1.8-.3s-1.3.1-1.8.3-1 .5-1.3 1.1-.5 1.5-.7 2.8c-.2 1.7-.3 3.5-.2 5.3 0 2.3.1 4 .3 5.3.1 1 .4 1.9.8 2.8.3.6.7 1 1.2 1.1s1.1.3 1.7.3 1.2-.1 1.7-.3 1-.5 1.3-1.1c.4-.9.6-1.9.8-2.8.1-1.3.2-3 .2-5.3s-.1-4-.2-5.3zM331 52.8v-2.3h2.7l11.1-19.7h2.5l11 19.7h2.8v2.3H331zm6-1h10l-5-9-5 9zm42.5-20.1c1.7.6 3.2 1.3 4.4 2.4 1.2 1 2.3 2.2 3 3.7.7 1.4 1.1 3 1.1 4.6 0 1.7-.4 3.2-1.1 4.6s-1.7 2.7-3 3.7c-1.2 1-2.7 1.9-4.4 2.4-1.7.6-3.5.9-5.6.9-2 0-3.8-.3-5.5-.9-1.6-.5-3.1-1.3-4.4-2.4-1.2-1-2.2-2.2-2.9-3.7-.7-1.4-1.1-3-1.1-4.6 0-1.7.4-3.2 1.1-4.6.7-1.4 1.7-2.7 2.9-3.7s2.7-1.9 4.4-2.4c1.7-.6 3.6-.9 5.5-.9 2.1 0 3.9.3 5.6.9zm-1.7 5.4c-.1-1-.3-1.9-.7-2.8-.3-.6-.7-1-1.3-1.1-.5-.1-1.1-.3-1.8-.3s-1.3.1-1.8.3-1 .5-1.3 1.1-.5 1.5-.7 2.8c-.2 1.7-.3 3.5-.2 5.3 0 2.3.1 4 .3 5.3.2 1.3.5 2.2.8 2.8.3.6.7 1 1.2 1.1s1.1.3 1.7.3 1.2-.1 1.7-.3c.5-.1 1-.5 1.3-1.1.4-.9.6-1.9.8-2.8.1-1.3.2-3 .2-5.3s-.1-4-.2-5.3zM418 52.8h-11.3l-5.3-9.8v9.8H391v-22h10.4v8.1l9.3-8.1h4.2l-6.5 5.7.1.1 9.5 16.2zm14.5 0h-10.2V33H416v-2.2h23V33h-6.5v19.8zm25-21.1c1.7.6 3.2 1.3 4.4 2.4 1.2 1 2.3 2.2 3 3.7.7 1.4 1.1 3 1.1 4.6 0 1.7-.4 3.2-1.1 4.6s-1.7 2.7-3 3.7c-1.2 1-2.7 1.9-4.4 2.4-1.7.6-3.5.9-5.6.9-2 0-3.8-.3-5.5-.9-1.6-.5-3.1-1.3-4.4-2.4-1.2-1-2.2-2.2-2.9-3.7-.7-1.4-1.1-3-1.1-4.6 0-1.7.4-3.2 1.1-4.6.7-1.4 1.7-2.7 2.9-3.7s2.7-1.9 4.4-2.4c1.8-.6 3.7-.9 5.5-.9 2.1 0 3.9.3 5.6.9zm-1.7 5.4c-.1-1-.3-1.9-.7-2.8-.3-.6-.7-1-1.3-1.1-.5-.1-1.1-.3-1.8-.3s-1.3.1-1.8.3-.9.5-1.2 1.1c-.3.6-.5 1.5-.7 2.8-.2 1.7-.3 3.5-.2 5.3 0 2.3.1 4 .3 5.3.2 1.3.5 2.2.8 2.8.3.6.7 1 1.2 1.1.6.2 1.1.3 1.7.3s1.2-.1 1.7-.3c.5-.2.9-.5 1.3-1.1.3-.6.5-1.6.8-2.8.2-1.3.2-3 .2-5.3s-.2-4-.3-5.3zm14.2-6.3h12.8c4.2 0 7.3.8 9.2 2.2 1.9 1.4 3 3.7 3 6.1 0 2.8-1 4.8-2.9 6.2-2 1.3-5 2-9.2 2H479v5.6h-9V30.8zm9 14h2c2 0 3.2-.5 3.9-1.3.7-.9 1.1-2.4 1.1-4.5 0-2.2-.4-3.8-1.1-4.7s-2-1.3-3.9-1.3l-2-.1v11.9z"/></g><g class="st1"><path class="st2" d="M262.6 18.2l.1.1v5.3c0 .1 0 .1-.1.2s-.1.1-.2.1h-.5c-.1 0-.1 0-.2-.1s-.1-.1-.1-.2v-3.7l-1.4 2.7c-.1.1-.1.2-.1.2s-.1.1-.2.1h-.3c-.1 0-.2 0-.2-.1 0 0-.1-.1-.1-.2l-1.4-2.7v3.6c0 .1 0 .1-.1.2 0 0-.1.1-.2.1h-.5c-.1 0-.1 0-.2-.1s-.1-.1-.1-.2v-5.3c0-.1 0-.1.1-.1s.1-.1.2-.1h.5c.1 0 .2.1.3.2l1.9 3.5 1.9-3.5c.1-.1.1-.2.3-.2h.5c0 .1 0 .2.1.2zm3.8 5.6s-.1-.1-.1-.2v-5.2c0-.1 0-.1.1-.2s.1-.1.2-.1h.5c.1 0 .1 0 .2.1 0 0 .1.1.1.2v2.1h3v-2.1c0-.1 0-.1.1-.2s.1-.1.2-.1h.5c.1 0 .1 0 .2.1s.1.1.1.2v5.2c0 .1 0 .1-.1.2 0 0-.1.1-.2.1h-.5c-.1 0-.1 0-.2-.1s-.1-.1-.1-.2v-2.2h-3v2.2c0 .1 0 .1-.1.2 0 0-.1.1-.2.1h-.5c-.1-.1-.2-.1-.2-.1zm9-.5c-.4-.5-.7-1.1-.7-1.8v-1c0-.8.3-1.4.7-1.8.4-.5 1.1-.7 1.9-.7s1.4.2 1.9.7c.4.5.7 1.1.7 1.8v1c0 .8-.3 1.4-.7 1.8-.4.5-1.1.7-1.9.7s-1.4-.3-1.9-.7zm3-.6c.3-.3.4-.7.4-1.3v-.8c0-.6-.2-1-.4-1.3-.3-.3-.6-.4-1.1-.4s-.8.1-1.1.4c-.3.3-.4.7-.4 1.3v.8c0 .6.2 1 .4 1.3.3.3.6.4 1.1.4s.8-.1 1.1-.4zm4.9 1.1s-.1-.1-.1-.2v-5.2c0-.1 0-.1.1-.2s.1-.1.2-.1h3.3c.1 0 .1 0 .2.1s.1.1.1.2v.4c0 .1 0 .1-.1.2 0 0-.1.1-.2.1h-2.5v4.6c0 .1 0 .1-.1.2 0 0-.1.1-.2.1h-.5c-.1-.2-.1-.2-.2-.2zm7-.5c-.4-.5-.7-1.1-.7-1.8v-1c0-.8.3-1.4.7-1.8.4-.5 1.1-.7 1.9-.7s1.4.2 1.9.7c.4.5.7 1.1.7 1.8v1c0 .8-.3 1.4-.7 1.8-.4.5-1.1.7-1.9.7s-1.5-.3-1.9-.7zm3-.6c.3-.3.4-.7.4-1.3v-.8c0-.6-.2-1-.4-1.3-.3-.3-.6-.4-1.1-.4s-.8.1-1.1.4c-.3.3-.4.7-.4 1.3v.8c0 .6.2 1 .4 1.3.3.3.6.4 1.1.4s.8-.1 1.1-.4zm4.9 1.1s-.1-.1-.1-.2v-5.2c0-.1 0-.1.1-.2s.1-.1.2-.1h4.3c.1 0 .1 0 .2.1s.1.1.1.2v5.2c0 .1 0 .1-.1.2s-.1.1-.2.1h-.5c-.1 0-.1 0-.2-.1 0 0-.1-.1-.1-.2V19H299v4.6c0 .1 0 .1-.1.2 0 0-.1.1-.2.1h-.5c.1-.1 0-.1 0-.1zm8.5 2.1s-.1-.1-.1-.2v-7.3c0-.1 0-.1.1-.2 0 0 .1-.1.2-.1h.5c.1 0 .1 0 .2.1 0 0 .1.1.1.2v.5c.4-.6 1-.8 1.8-.8s1.3.2 1.7.7c.4.5.6 1.1.6 1.9v.8c0 .7-.2 1.4-.6 1.9s-1 .7-1.7.7c-.8 0-1.4-.3-1.8-.8v2.6c0 .1 0 .1-.1.2 0 0-.1.1-.2.1h-.5c-.1-.3-.2-.3-.2-.3zm3.7-3.3c.2-.3.4-.8.4-1.3V21c0-1.4-.5-2.1-1.6-2.1-.5 0-.9.2-1.2.5-.3.3-.4.7-.4 1.2v.8c0 .4.2.8.4 1.2.3.3.7.5 1.1.5.6 0 1-.2 1.3-.5zm5.2.7c-.4-.5-.7-1.1-.7-1.8v-1c0-.8.3-1.4.7-1.8.4-.5 1.1-.7 1.9-.7s1.4.2 1.9.7c.4.5.7 1.1.7 1.8v1c0 .8-.3 1.4-.7 1.8-.4.5-1.1.7-1.9.7s-1.5-.3-1.9-.7zm3-.6c.3-.3.4-.7.4-1.3v-.8c0-.6-.2-1-.4-1.3-.3-.3-.6-.4-1.1-.4s-.8.1-1.1.4c-.3.3-.4.7-.4 1.3v.8c0 .6.2 1 .4 1.3.3.3.6.4 1.1.4s.8-.1 1.1-.4zm7.5 3.2s-.1-.1-.1-.2v-1.8c-.9 0-1.6-.2-2.1-.7s-.7-1.1-.8-1.8v-.8c0-.8.3-1.4.8-1.8s1.2-.7 2.1-.7v-1.8c0-.1 0-.1.1-.2s.1-.1.2-.1h.5c.1 0 .1 0 .2.1 0 0 .1.1.1.2v1.8c.9 0 1.6.2 2.1.7.5.4.7 1 .8 1.8v.8c0 .8-.3 1.4-.8 1.8s-1.2.7-2.1.7v1.8c0 .1 0 .1-.1.2 0 0-.1.1-.2.1h-.5c-.1-.1-.2-.1-.2-.1zM326 19c-1.2 0-1.8.6-1.9 1.7v.6c0 .6.2 1 .5 1.3s.8.4 1.4.4v-4zm2.4 3.6c.3-.3.5-.7.5-1.3v-.6c-.1-1.2-.7-1.7-1.9-1.7v4.1c.6-.1 1.1-.2 1.4-.5zm9.8-4.4c.1 0 .1.1.1.2v5.2c0 .1 0 .1-.1.2 0 0-.1.1-.2.1h-.5c-.1 0-.1 0-.2-.1s-.1-.1-.1-.2v-4l-3.1 4.1c-.1.1-.2.2-.3.2h-.5c-.1 0-.1 0-.2-.1 0 0-.1-.1-.1-.2v-5.2c0-.1 0-.1.1-.2 0 0 .1-.1.2-.1h.5c.1 0 .1 0 .2.1s.1.1.1.2v4l3.1-4.1c.1-.1.2-.2.3-.2h.5c.1 0 .2.1.2.1zm3.2 5.6c-.1-.1-.1-.1-.1-.2v-.4c0-.1 0-.1.1-.2 0 0 .1-.1.2-.1.4 0 .6-.3.8-.8.2-.5.3-1.3.3-2.4v-1.4c0-.1 0-.1.1-.2 0 0 .1-.1.2-.1h3.5c.1 0 .1 0 .2.1 0 0 .1.1.1.2v5.2c0 .1 0 .1-.1.2s-.1.1-.2.1h-.5c-.1 0-.1 0-.2-.1 0 0-.1-.1-.1-.2v-4.6h-2v.9c0 1.4-.2 2.4-.5 3s-.8.9-1.5.9c-.1.1-.2.1-.3.1zm8.9 0s-.1-.1-.1-.2v-5.2c0-.1 0-.1.1-.2s.1-.1.2-.1h.5c.1 0 .1 0 .2.1 0 0 .1.1.1.2V20h1.2c.7 0 1.3.2 1.6.5.4.3.5.8.5 1.4s-.2 1.1-.6 1.4-.9.5-1.7.5h-2zm2.1-.8c.5 0 .8-.1 1-.2s.3-.4.3-.8-.1-.7-.3-.9-.5-.3-1-.3h-1.2V23h1.2zm5.4.8s-.1-.1-.1-.2v-5.2c0-.1 0-.1.1-.2s.1-.1.2-.1h.5c.1 0 .1 0 .2.1 0 0 .1.1.1.2v2.1h3v-2.1c0-.1 0-.1.1-.2 0 0 .1-.1.2-.1h.5c.1 0 .1 0 .2.1 0 0 .1.1.1.2v5.2c0 .1 0 .1-.1.2s-.1.1-.2.1h-.6c-.1 0-.1 0-.2-.1 0 0-.1-.1-.1-.2v-2.2h-3v2.2c0 .1 0 .1-.1.2 0 0-.1.1-.2.1h-.4c-.1-.1-.1-.1-.2-.1zm9.2-.1c-.3-.1-.5-.3-.7-.6-.2-.3-.3-.5-.3-.8 0-.5.2-.9.6-1.2.4-.3.9-.5 1.6-.6l1.6-.2V20c0-.8-.4-1.1-1.3-1.1-.3 0-.6.1-.8.2-.2.1-.4.3-.5.5 0 .1-.1.1-.1.1h-.5c-.1 0-.1 0-.2-.1 0 0-.1-.1-.1-.2 0-.2.1-.4.2-.6.2-.2.4-.4.7-.6.3-.2.7-.2 1.2-.2.8 0 1.4.2 1.8.6s.5.9.5 1.4v3.6c0 .1 0 .1-.1.2 0 0-.1.1-.2.1h-.5c-.1 0-.1 0-.2-.1s-.1-.1-.1-.2v-.5c-.2.2-.4.4-.7.6-.3.2-.7.2-1.2.2-.1.1-.4 0-.7-.2zm2.4-1c.3-.3.5-.8.5-1.4V21l-1.3.2c-.5.1-.9.2-1.2.4s-.4.4-.4.7c0 .3.1.5.4.7.2.2.5.2.9.2s.8-.2 1.1-.5zm9.3-4.5s.1.1.1.2v5.2c0 .1 0 .1-.1.2 0 0-.1.1-.2.1h-.5c-.1 0-.1 0-.2-.1 0 0-.1-.1-.1-.2v-1.8h-1.2l-1.3 1.9-.1.1h-.7c-.1 0-.1 0-.2-.1s-.1-.1-.1-.2 0-.1.1-.2l1.2-1.8c-.4-.1-.7-.3-.9-.6-.2-.3-.3-.6-.3-1.1 0-.6.2-1.1.5-1.4.4-.3.9-.4 1.6-.4h1.9c.4.1.4.2.5.2zm-.9.7h-1.2c-.4 0-.7.1-.9.2-.2.2-.3.4-.3.8 0 .3.1.6.3.8s.5.3.8.3h1.3v-2.1zm14.1 4.8c0 .1-.1.2-.2.2h-.7c-.1 0-.2-.1-.3-.2l-1.6-2.3h-1v2.2c0 .1 0 .1-.1.2s-.1.1-.2.1h-.5c-.1 0-.1 0-.2-.1s-.1-.1-.1-.2v-5.2c0-.1 0-.1.1-.2s.1-.1.2-.1h.5c.1 0 .1 0 .2.1 0 0 .1.1.1.2v2.1h1l1.5-2.2c.1-.1.2-.2.3-.2h.7l.1.1v.2l-1.6 2.4 1.9 2.7c-.1.1-.1.1-.1.2zm2.6.1c-.1-.1-.1-.1-.1-.2v-.4c0-.1 0-.1.1-.2 0 0 .1-.1.2-.1.4 0 .6-.3.8-.8s.3-1.3.3-2.4v-1.4c0-.1 0-.1.1-.2s.1-.1.2-.1h3.5c.1 0 .1 0 .2.1 0 0 .1.1.1.2v5.2c0 .1 0 .1-.1.2 0 0-.1.1-.2.1h-.5c-.1 0-.1 0-.2-.1 0 0-.1-.1-.1-.2v-4.6h-2v.9c0 1.4-.2 2.4-.5 3s-.8.9-1.5.9c-.2.1-.3.1-.3.1zm13.8-5.6c.1 0 .1.1.1.2v5.2c0 .1 0 .1-.1.2 0 0-.1.1-.2.1h-.5c-.1 0-.1 0-.2-.1s-.1-.1-.1-.2v-4l-3.1 4.1c-.1.1-.2.2-.3.2h-.5c-.1 0-.1 0-.2-.1 0 0-.1-.1-.1-.2v-5.2c0-.1 0-.1.1-.2 0 0 .1-.1.2-.1h.5c.1 0 .1 0 .2.1s.1.1.1.2v4l3.1-4.1c.1-.1.2-.2.3-.2h.5c.1 0 .1.1.2.1zm3.7 5.6s-.1-.1-.1-.2v-5.2c0-.1 0-.1.1-.2 0 0 .1-.1.2-.1h.5c.1 0 .1 0 .2.1s.1.1.1.2v2.1h3v-2.1c0-.1 0-.1.1-.2s.1-.1.2-.1h.5c.1 0 .1 0 .2.1s.1.1.1.2v5.2c0 .1 0 .1-.1.2 0 0-.1.1-.2.1h-.5c-.1 0-.1 0-.2-.1s-.1-.1-.1-.2v-2.2h-3v2.2c0 .1 0 .1-.1.2s-.1.1-.2.1h-.5c-.1-.1-.1-.1-.2-.1zm13.6-5.6c.1 0 .1.1.1.2v5.2c0 .1 0 .1-.1.2 0 0-.1.1-.2.1h-.4c-.1 0-.1 0-.2-.1s-.1-.1-.1-.2v-4l-3.1 4.1c-.1.1-.2.2-.3.2h-.5c-.1 0-.1 0-.2-.1 0 0-.1-.1-.1-.2v-5.2c0-.1 0-.1.1-.2 0 0 .1-.1.2-.1h.5c.1 0 .1 0 .2.1s.1.1.1.2v4l3.1-4.1c.1-.1.2-.2.3-.2h.5l.1.1zm8.5 5.5c0 .1-.1.2-.2.2h-.6c-.1 0-.2-.1-.3-.2l-1.6-2.3h-1v2.2c0 .1 0 .1-.1.2 0 0-.1.1-.2.1h-.5c-.1 0-.1 0-.2-.1 0 0-.1-.1-.1-.2v-5.2c0-.1 0-.1.1-.2 0 0 .1-.1.2-.1h.5c.1 0 .1 0 .2.1s.1.1.1.2v2.1h1l1.5-2.2c.1-.1.2-.2.3-.2h.7l.1.1v.2l-1.6 2.4 1.6 2.7c.1.1.1.1.1.2z" transform="translate(-162 -16)"/></g><g class="st1"><path class="st2" d="M436 23.7c-.3-.1-.5-.3-.7-.6-.2-.3-.3-.5-.3-.8 0-.5.2-.9.6-1.2.4-.3.9-.5 1.6-.6l1.7-.2V20c0-.8-.4-1.1-1.3-1.1-.3 0-.6.1-.8.2-.2.1-.4.3-.5.5 0 .1-.1.1-.1.1h-.5c-.1 0-.1 0-.2-.1 0 0-.1-.1-.1-.2 0-.2.1-.4.2-.6.2-.2.4-.4.7-.6.3-.2.7-.2 1.2-.2.8 0 1.4.2 1.8.6s.5.9.5 1.4v3.6c0 .1 0 .1-.1.2 0 0-.1.1-.2.1h-.5c-.1 0-.1 0-.2-.1s-.1-.1-.1-.2v-.5c-.2.2-.4.4-.7.6-.3.2-.7.2-1.2.2-.2.1-.5 0-.8-.2zm2.4-1c.3-.3.5-.8.5-1.4V21l-1.3.2c-.5.1-.9.2-1.2.4s-.4.4-.4.7c0 .3.1.5.4.7.2.2.5.2.9.2s.8-.2 1.1-.5z" transform="translate(-162 -16)"/></g><g transform="translate(-162 -16)"><path id="ygb9b" class="st0" d="M174 29.8v-11h10v11c-3.1-2-8.3-1.6-10 0z"/></g><g transform="translate(-162 -16)"><path id="ygb9c" class="st0" d="M196 29.8v-11h-10v11c3.1-2 8.3-1.6 10 0z"/></g><g transform="translate(-162 -16)"><path id="ygb9d" class="st0" d="M199.4 40.8h8.6v-10h-10c.1 0 3.2 3.2 1.4 10z"/></g><g transform="translate(-162 -16)"><path id="ygb9e" class="st0" d="M170.6 40.8H162v-10h10c-.1 0-3.2 3.2-1.4 10z"/></g><g transform="translate(-162 -16)"><path id="ygb9f" class="st0" d="M186 56.5v8.3h10v-12h12v-10h-9.2c-.3.4-12.8 13.7-12.8 13.7z"/></g><g transform="translate(-162 -16)"><path id="ygb9g" class="st0" d="M184 56.5v8.3h-10v-12h-12v-10h9.2c.3.4 12.8 13.7 12.8 13.7z"/></g><g transform="translate(-162 -16)"><radialGradient id="ygb9h_1_" cx="505.18" cy="717.06" r="16.59" gradientTransform="translate(-324 -679.3)" gradientUnits="userSpaceOnUse"><stop offset="0" stop-color="#ffe8d3"/><stop offset=".63" stop-color="#ffab5f"/><stop offset="1" stop-color="#ff732c"/></radialGradient><path id="ygb9h" d="M196.3 33.3c-2.9-2.9-6.8-3.7-11.3.5-4.5-4.2-8.4-3.5-11.2-.6l-.1.1c-2.7 2.9-2 7.3.8 10.2L185 53.8l10.5-10.3c2.8-2.9 3.5-7.3.8-10.2z" fill="url(#ygb9h_1_)"/></g></svg>