<svg width="196" height="110" viewBox="0 0 196 110" fill="none" xmlns="http://www.w3.org/2000/svg">
<path fill-rule="evenodd" clip-rule="evenodd" d="M89.0791 7.1622C89.0932 7.32745 89.1002 7.52084 89.1002 7.73532C89.1002 7.94979 89.0967 8.1713 89.0896 8.39633C89.0826 8.62136 89.0686 8.84639 89.051 9.06438C89.0334 9.28589 89.0123 9.48279 88.9807 9.6586L88.5555 9.69024L87.835 7.96386L82.6407 8.35414L82.1874 10.1684L81.7621 10.2001C81.7059 10.0207 81.6497 9.82033 81.597 9.59882C81.5442 9.37731 81.495 9.15228 81.4529 8.92726C81.4221 8.76333 81.3952 8.60314 81.3733 8.44668L78.022 8.86099L77.9728 8.44961C78.1029 8.36874 78.2435 8.28787 78.3946 8.21052C78.5457 8.13317 78.6933 8.06988 78.8339 8.02417L77.9939 6.38217L75.5936 6.68104L75.1684 8.48126C75.5057 8.48477 75.8326 8.54806 76.1489 8.67815L76.1946 9.08953L73.5788 9.41321L71.7555 9.7327L71.274 9.50767C71.0632 9.32483 70.8418 9.11739 70.6063 8.88884C70.3708 8.6603 70.1354 8.42121 69.8999 8.17157C69.6644 7.92193 69.4325 7.66878 69.204 7.41562C68.9756 7.15895 68.7577 6.90931 68.5539 6.6667L68.0935 6.74757L68.5855 9.54986C68.7472 9.54986 68.8983 9.56744 69.0389 9.6026C69.1795 9.63776 69.2989 9.67996 69.4044 9.72566L69.4747 10.1335L66.2238 10.7031L66.1535 10.2953C66.2836 10.2003 66.4206 10.1089 66.5612 10.0316C66.7018 9.95069 66.8424 9.88389 66.9794 9.83115L65.9146 3.75541C65.7459 3.76245 65.5807 3.7519 65.4155 3.72025C65.2504 3.68861 65.1063 3.64993 64.9797 3.59719L64.9095 3.18933L68.1603 2.61973L68.2306 3.02759C68.1462 3.10143 68.0443 3.17878 67.9213 3.25965C67.7983 3.34052 67.6647 3.41084 67.5207 3.47413L67.9986 6.20258L68.6066 5.9424L69.8823 3.06275C69.7347 3.05924 69.5836 3.03814 69.436 3.00298C69.2849 2.96782 69.1548 2.92914 69.0459 2.89047L68.9721 2.47909L71.8469 1.97629L71.9172 2.38416C71.8082 2.48612 71.6817 2.57402 71.5341 2.65489C71.3865 2.73576 71.2494 2.79905 71.1229 2.84124L69.5379 5.78769C69.7418 5.9881 69.9807 6.21313 70.2549 6.46277C70.8444 7.00423 71.4455 7.53293 72.0577 8.04851C72.3775 8.31925 72.6903 8.57943 72.9891 8.81852L73.4755 9.00778C73.5806 8.92024 73.6963 8.84317 73.8223 8.77309C73.9489 8.70277 74.0754 8.64299 74.2019 8.6008L76.1278 1.27687L76.9291 1.17842L80.5067 7.82024C80.6543 7.83079 80.8055 7.8554 80.9531 7.89056C81.0896 7.92233 81.2118 7.96559 81.3197 8.01515C81.3087 7.91386 81.3006 7.82314 81.2947 7.74235L82.2401 7.67203C82.4193 7.35207 82.5775 6.96178 82.7145 6.50118C82.8516 6.04058 82.9605 5.53778 83.0379 4.99631C83.1187 4.45484 83.1644 3.88524 83.182 3.29102C83.1995 2.69681 83.1855 2.1026 83.1398 1.50839C82.95 1.48729 82.7497 1.4451 82.5423 1.38884C82.335 1.33258 82.1382 1.25875 81.9589 1.17085L81.9273 0.759467L88.1759 0.291832L88.2075 0.70321C87.965 0.861433 87.6769 0.98801 87.3395 1.08646L87.7999 7.26065L89.0791 7.1622ZM86.1797 7.38019L85.7158 1.18491L83.9657 1.315C83.9938 2.15886 83.9867 2.91481 83.9516 3.58989C83.9129 4.26497 83.8567 4.85918 83.7724 5.37253C83.6915 5.88939 83.5931 6.33241 83.4842 6.70159C83.3717 7.07078 83.2628 7.37316 83.1468 7.60522L86.1797 7.38019ZM95.0114 0.063289C95.0079 0.390282 94.9903 0.727823 94.9657 1.07943C94.9411 1.42752 94.9025 1.75803 94.8532 2.06392L94.4069 2.07799L93.8657 0.808692L91.8309 0.871981L91.9152 3.54066L93.2437 3.49847L93.697 2.64407L94.0449 2.63352C94.0906 2.98864 94.1223 3.38244 94.1363 3.81843C94.1504 4.25442 94.1433 4.66229 94.1187 5.04202L93.7708 5.05257L93.2647 4.2052L91.9363 4.24739L92.0242 7.08133L94.1469 7.01452L94.681 5.61162L95.1274 5.59756C95.159 5.73468 95.1941 5.88939 95.2293 6.06168C95.2644 6.23396 95.2925 6.41328 95.3171 6.59963C95.3418 6.78246 95.3628 6.97233 95.3769 7.15868C95.3945 7.34855 95.405 7.52084 95.4085 7.68257L89.5184 7.86541L89.5043 7.45051C89.6273 7.38019 89.7609 7.3169 89.912 7.25361C90.0631 7.19033 90.2213 7.1411 90.3865 7.10946L90.1967 0.942302C90.0491 0.91769 89.8944 0.882529 89.7293 0.829788C89.5786 0.78563 89.4326 0.726746 89.2935 0.653986L89.2794 0.239092L95.0114 0.063289ZM105.808 7.80212L102.55 7.74235L102.557 7.32745C102.704 7.25713 102.845 7.19736 102.986 7.14813C103.126 7.09891 103.274 7.06023 103.435 7.02507L103.516 2.46827L103.594 1.19546H103.506L103.126 2.35576L100.926 7.71422L100.424 7.70367L98.4274 2.31708L98.0584 1.03372H97.96L97.9494 2.41904L97.8686 6.88795C98.0057 6.91959 98.1568 6.96882 98.322 7.03914C98.4871 7.10594 98.6418 7.18329 98.7859 7.26416L98.7788 7.67906L96.1219 7.62983L96.129 7.21494C96.2449 7.15868 96.389 7.09188 96.5612 7.01452C96.7334 6.93717 96.8951 6.88443 97.0497 6.85982L97.1587 0.745403C97.0146 0.713759 96.86 0.671566 96.6983 0.618825C96.5366 0.566085 96.3926 0.495763 96.2731 0.414894L96.2801 0L99.2322 0.0527407L100.821 4.51813L101.119 5.56943H101.13L101.474 4.50758L103.253 0.123062L105.955 0.172286L105.948 0.587181C105.822 0.657502 105.688 0.717275 105.548 0.770015C105.403 0.822756 105.259 0.861433 105.115 0.886045L105.006 7.06375C105.157 7.09539 105.305 7.1411 105.446 7.20088C105.586 7.26065 105.709 7.32042 105.818 7.38371L105.808 7.80212ZM109.55 8.08692L106.279 7.84783L106.31 7.43645C106.454 7.37316 106.602 7.32042 106.76 7.2712C106.915 7.22549 107.073 7.19736 107.224 7.18681L107.677 1.03372C107.537 0.988011 107.386 0.93527 107.231 0.875497C107.076 0.815724 106.936 0.741887 106.809 0.653986L106.841 0.242607L110.113 0.481699L110.081 0.893077C109.969 0.949334 109.839 1.00208 109.698 1.0513C109.557 1.10052 109.403 1.13217 109.245 1.14975L108.942 5.28111L108.77 6.12145L109.368 5.27056L112.387 1.64551L112.404 1.38532C112.07 1.27984 111.793 1.15326 111.568 1.00559L111.599 0.594213L114.871 0.833304L114.84 1.24468C114.71 1.315 114.565 1.36774 114.407 1.40291C114.249 1.43807 114.088 1.46971 113.926 1.49432L113.472 7.64741C113.638 7.68961 113.792 7.74235 113.936 7.80564C114.08 7.87244 114.214 7.94628 114.341 8.02715L114.309 8.43853L111.037 8.19943L111.069 7.78806C111.174 7.74586 111.301 7.69664 111.445 7.64741C111.589 7.59467 111.743 7.55951 111.905 7.5349L112.207 3.41409L112.38 2.5632L111.828 3.38596L108.76 7.06375L108.742 7.30284C108.907 7.35207 109.058 7.40832 109.199 7.47864C109.34 7.54896 109.466 7.61577 109.579 7.68257L109.55 8.08692ZM119.802 1.42752L122.698 1.78615L122.645 2.19753C122.512 2.26082 122.364 2.31005 122.199 2.34521C122.034 2.38037 121.886 2.39795 121.752 2.40498L119.373 4.75722C119.718 5.38574 120.08 6.0048 120.459 6.6137L120.507 6.69141L120.508 6.69181C120.706 7.01133 120.909 7.3364 121.12 7.66148C121.348 8.0166 121.57 8.35414 121.784 8.6741L122.199 9.00108L122.2 8.99096C122.327 8.93822 122.46 8.89955 122.605 8.8679C122.745 8.83626 122.886 8.81868 123.019 8.81164L127.005 2.37375L127.799 2.5144L129.275 9.91217C129.412 9.96491 129.549 10.0317 129.683 10.1126C129.816 10.1899 129.932 10.2778 130.023 10.3657L129.953 10.7736L126.593 10.1829L126.664 9.77504C126.811 9.73285 126.969 9.70121 127.135 9.66956C127.303 9.64143 127.458 9.62385 127.609 9.62034L127.286 7.80254L124.903 7.38413L123.972 8.98041C124.295 9.08238 124.587 9.2406 124.85 9.45508L124.78 9.86294L122.221 9.41472L122.22 9.42302L120.34 9.18744L119.946 8.83232C119.798 8.59323 119.647 8.33304 119.489 8.04473C119.331 7.75641 119.176 7.46106 119.025 7.15165C118.874 6.84295 118.727 6.53424 118.58 6.22554L118.58 6.22542L118.579 6.22341C118.435 5.914 118.301 5.61162 118.175 5.31627L117.711 5.26001L117.359 8.0834C117.514 8.13263 117.655 8.1924 117.774 8.26624C117.897 8.34008 117.999 8.41391 118.087 8.49127L118.034 8.90264L114.759 8.49478L114.811 8.0834C114.966 8.03066 115.121 7.98496 115.279 7.94979C115.437 7.91463 115.588 7.89002 115.736 7.87947L116.495 1.75803C116.333 1.71612 116.176 1.65597 116.027 1.57871C115.88 1.50135 115.753 1.42049 115.648 1.33258L115.701 0.921206L118.976 1.32907L118.923 1.74045C118.821 1.78615 118.702 1.82835 118.561 1.87054C118.421 1.91273 118.273 1.94086 118.119 1.95844L117.778 4.70448L118.435 4.63064L120.498 2.25027C120.357 2.20457 120.22 2.14128 120.087 2.06041C119.953 1.98305 119.841 1.9057 119.746 1.83538L119.802 1.42752ZM77.6776 5.71412L75.7623 5.9497L76.2578 3.81546L76.3773 2.83448L76.3984 2.83096L76.7182 3.73459L77.6776 5.71412ZM50.5321 14.8767L48.0272 15.6776L46.3234 16.35L45.8068 16.2269C45.5643 16.0898 45.3042 15.9316 45.0301 15.7558C44.7524 15.58 44.4748 15.3936 44.1936 15.1967C43.9125 14.9998 43.6349 14.7994 43.3572 14.5955C43.0831 14.3916 42.8195 14.1911 42.57 13.9942L42.1342 14.1665L43.1815 16.8106C43.3396 16.779 43.4908 16.7649 43.6349 16.7719C43.7789 16.779 43.9055 16.793 44.0179 16.8211L44.169 17.2079L41.101 18.4245L40.9499 18.0377C41.0588 17.9182 41.1748 17.8021 41.2943 17.6966C41.4173 17.5912 41.5403 17.4962 41.6633 17.4154L39.393 11.6807C39.2278 11.7229 39.0661 11.744 38.8974 11.7475C38.7323 11.751 38.5812 11.7405 38.4441 11.7158L38.293 11.3291L41.361 10.1125L41.5122 10.4993C41.4454 10.5872 41.361 10.6856 41.2556 10.7876C41.1537 10.8931 41.0342 10.988 40.9077 11.0794L41.9269 13.6532L42.4681 13.2734L43.1358 10.1969C42.9882 10.225 42.8406 10.2356 42.686 10.2286C42.5313 10.225 42.3978 10.211 42.2818 10.1969L42.1307 9.80662L44.8473 8.73071L44.9984 9.11748C44.9141 9.23703 44.8051 9.35305 44.6786 9.46205C44.5486 9.57105 44.4291 9.65895 44.3166 9.72927L43.3572 12.9324C43.5997 13.0871 43.8773 13.2594 44.1936 13.4493C44.5099 13.6391 44.8473 13.836 45.1988 14.0364C45.5502 14.2368 45.9122 14.4373 46.2812 14.6412C46.6502 14.8416 47.0052 15.0315 47.3496 15.2073L47.8517 15.2925C47.9377 15.1906 48.0367 15.0954 48.1423 15.0068C48.2547 14.9154 48.3672 14.8345 48.4832 14.7677L49.0174 7.21521L49.7835 6.96908L54.5314 12.8303C54.6791 12.8128 54.8302 12.8092 54.9848 12.8163C55.1394 12.8233 55.28 12.8444 55.4065 12.8831L55.5331 13.2769L52.2858 14.3176L52.1592 13.9238C52.2717 13.8183 52.3947 13.7164 52.5282 13.6109C52.6618 13.5054 52.7953 13.4175 52.9254 13.3472L51.7937 11.888L49.4918 12.6264L49.4075 14.4723C49.7378 14.4126 50.0717 14.4161 50.4055 14.4829L50.5321 14.8767ZM49.5234 11.8705L51.3615 11.2833L50.0541 9.51822L49.5726 8.68843L49.5516 8.69546L49.6148 9.68347L49.5234 11.8705ZM60.8714 11.9302L58.2497 12.5385L58.1548 12.1342C58.2532 12.0357 58.3586 11.9478 58.4781 11.8634C58.5976 11.779 58.7171 11.7087 58.8366 11.6525L59.9893 4.16679L60.773 3.98396L65.0254 10.2144C65.173 10.2109 65.3242 10.2179 65.4788 10.239C65.6334 10.2601 65.7705 10.2917 65.8935 10.3375L65.9884 10.7418L62.6673 11.5118L62.5724 11.1075C62.6919 11.0125 62.8219 10.9176 62.966 10.8262C63.1101 10.7348 63.2471 10.6574 63.3807 10.5941L62.3756 9.04707L60.0209 9.59205L59.7855 11.4239C60.1193 11.3923 60.4532 11.4239 60.78 11.5188L60.8714 11.9302ZM60.1123 8.85017L61.9925 8.41418L60.8328 6.54716L60.4181 5.68221L60.397 5.68572L60.3794 6.67373L60.1123 8.85017ZM10.6347 31.5815C10.828 31.4866 11.0107 31.3706 11.1899 31.2264C11.7628 31.7397 12.2443 32.2074 12.6344 32.6328C13.0315 33.0477 13.3618 33.4239 13.6254 33.7615C13.8925 34.0955 14.0999 34.3944 14.251 34.6546C14.4021 34.9147 14.5216 35.1468 14.6095 35.3542L13.5059 36.1067L13.6149 36.6024C13.7238 36.6903 13.8503 36.7677 14.0015 36.8415C14.1526 36.9119 14.3037 36.9716 14.4618 37.0138L14.4942 37.0225L13.9976 37.2806C13.6181 37.3474 13.2174 37.4107 12.8027 37.4704C12.388 37.5337 11.9768 37.59 11.5762 37.6427C11.1721 37.6955 10.789 37.7412 10.42 37.7798C10.051 37.8185 9.72412 37.8502 9.43946 37.8713L8.27619 34.7349C8.32539 34.6119 8.37108 34.4677 8.40623 34.3025C8.44137 34.1372 8.45894 33.9825 8.45543 33.8348L8.10047 33.6204L6.58225 36.1132L6.93369 36.3242C7.03561 36.2679 7.15159 36.1941 7.2781 36.1062C7.40462 36.0183 7.51708 35.9199 7.619 35.8109L8.9369 38.6764L8.73306 39.3058L6.37139 37.8642C6.41708 37.713 6.45222 37.5654 6.47331 37.4212C6.49088 37.2771 6.50142 37.1505 6.50142 37.038L6.14647 36.8235L4.42793 39.6434L4.78288 39.8578C4.90589 39.7981 5.03241 39.7137 5.16244 39.6117C5.29247 39.5097 5.41196 39.3902 5.51739 39.2601L10.782 42.4703C10.7292 42.6109 10.6871 42.7586 10.6554 42.9168C10.6203 43.075 10.5992 43.2368 10.5851 43.3985L10.9401 43.613L12.6586 40.7931L12.3037 40.5786C12.1983 40.6278 12.0858 40.6911 11.9698 40.772C11.8538 40.8564 11.7414 40.9584 11.6324 41.0779L9.20399 39.5976L9.44649 39.1968C9.76278 39.2038 10.0966 39.2038 10.4375 39.2003C10.7768 39.1969 11.1127 39.1866 11.4519 39.1762L11.4673 39.1757C11.8117 39.1652 12.1455 39.1476 12.4724 39.1195C12.7753 39.0967 13.0777 39.0662 13.3791 39.028L13.8676 38.8136L14.8551 37.1927L14.6283 37.054C14.7247 37.0741 14.8186 37.088 14.9082 37.0947C15.0488 37.1052 15.1647 37.0877 15.2561 37.042C15.3861 36.8978 15.4845 36.7114 15.5478 36.4829C15.6111 36.2544 15.6216 36.0258 15.5724 35.7973C15.5232 35.5476 15.4424 35.2769 15.3299 34.9851C15.2174 34.6932 15.0206 34.3416 14.743 33.9338C14.4654 33.5259 14.0788 33.0442 13.5868 32.4922C13.0947 31.9366 12.4446 31.2827 11.6398 30.5267L12.8312 29.2082L17.4245 33.3571C17.3542 33.4907 17.2909 33.6279 17.2382 33.7685C17.182 33.9091 17.1398 34.0463 17.1047 34.1834L17.4104 34.4612L19.6596 31.9683L19.3539 31.6905C19.2168 31.7433 19.0798 31.8065 18.9357 31.8769C18.7916 31.9472 18.6545 32.0351 18.521 32.1406L13.9452 28.0057C14.0401 27.8545 14.1174 27.7033 14.1807 27.5486C14.244 27.3939 14.2861 27.2533 14.3107 27.1302L14.005 26.8524L9.79473 31.5182L10.1005 31.796C10.2621 31.7468 10.4414 31.6765 10.6347 31.5815ZM19.614 31.4444L19.874 31.7644L22.4184 29.6934L22.1584 29.3664C22.0319 29.3945 21.8913 29.4332 21.7437 29.4789C21.5926 29.5246 21.4414 29.5879 21.2903 29.6653L21.1392 29.4789L20.851 24.7006L20.6894 23.7232L21.1462 24.4615L23.7504 27.6682C23.652 27.7983 23.5641 27.9319 23.4938 28.069C23.4236 28.2061 23.3638 28.3292 23.3181 28.4311L23.5782 28.7511L26.1226 26.6801L25.8625 26.3602C25.7149 26.3848 25.5673 26.4235 25.4162 26.4762C25.2651 26.5254 25.1175 26.5922 24.9699 26.6766L21.0795 21.8878C21.1814 21.7577 21.2763 21.6241 21.3676 21.4905C21.459 21.3568 21.5258 21.2197 21.5715 21.0791L21.3114 20.7591L18.767 22.8301L19.027 23.15C19.2906 23.1043 19.5788 23.0059 19.8951 22.8512L20.0603 23.0551L20.3485 27.7666L20.4961 28.7933L20.0462 28.0655L17.435 24.8518C17.5405 24.7287 17.6283 24.6022 17.6986 24.4686C17.7689 24.3385 17.8286 24.2119 17.8708 24.0923L17.6107 23.7724L15.0663 25.8433L15.3264 26.1633C15.4775 26.1422 15.6286 26.1 15.7833 26.0367C15.9344 25.9734 16.0785 25.9101 16.2155 25.8468L20.106 30.6322C20.0041 30.7482 19.9092 30.8748 19.8283 31.0154C19.7475 31.1596 19.6737 31.3002 19.614 31.4444ZM26.4143 26.5043L29.2153 24.7569L28.9904 24.3982C28.8428 24.3947 28.7022 24.4053 28.5721 24.4264C28.4421 24.451 28.3051 24.4861 28.168 24.5389L26.6744 22.1444L29.1239 20.615L30.6175 23.0094C30.5121 23.1114 30.4172 23.2204 30.3364 23.3399C30.2555 23.4594 30.1888 23.5755 30.129 23.688L30.3469 24.0396L33.1479 22.2921L32.93 21.9405C32.7965 21.9475 32.6453 21.9686 32.4837 22.0003C32.3185 22.0319 32.1603 22.0812 32.0022 22.1444L28.7408 16.909C28.8533 16.8071 28.9658 16.6875 29.0747 16.561C29.1837 16.4344 29.268 16.3043 29.3313 16.1707L29.1134 15.8191L26.3124 17.5665L26.5303 17.9181C26.6533 17.9181 26.7833 17.9111 26.9204 17.8935C27.061 17.876 27.205 17.8373 27.3562 17.7775L28.7514 20.0172L26.3018 21.5467L24.9066 19.307C25.0121 19.2156 25.107 19.1101 25.1913 18.9905C25.2756 18.871 25.3459 18.7515 25.3986 18.6319L25.1808 18.2803L22.3798 20.0278L22.5977 20.3794C22.7207 20.3829 22.8648 20.3653 23.0299 20.3302C23.1986 20.295 23.3638 20.2423 23.5255 20.1755L26.7868 25.4109C26.6779 25.5128 26.5725 25.6289 26.4635 25.766C26.3546 25.9031 26.2667 26.0332 26.1964 26.1527L26.4143 26.5043ZM33.4923 22.1233L36.4339 20.6747L36.2511 20.302C36.1211 20.302 35.977 20.3091 35.8223 20.3196C35.6677 20.3337 35.5061 20.3583 35.3409 20.4005L35.2354 20.186L36.0192 15.4639L36.0789 14.4759L36.3601 15.2952L38.184 19.0011C38.0575 19.1031 37.9415 19.2121 37.8431 19.3316L37.8219 19.3573C37.7326 19.4659 37.6553 19.5597 37.5901 19.6445L37.7764 20.0137L40.7179 18.5651L40.5352 18.1924C40.3876 18.1854 40.2329 18.1889 40.0748 18.2065C39.9166 18.224 39.755 18.2557 39.5933 18.3049L36.8696 12.7707C36.9962 12.6652 37.1192 12.5597 37.2387 12.4472C37.3581 12.3382 37.4565 12.2186 37.5303 12.0921L37.3476 11.7194L34.406 13.168L34.5888 13.5407C34.8524 13.5582 35.1581 13.5266 35.499 13.4457L35.615 13.6813L34.8453 18.3366L34.761 19.3738L34.4834 18.5616L32.6559 14.8451C32.7894 14.7467 32.9019 14.6412 33.0003 14.5287C33.0987 14.4162 33.1795 14.3037 33.2498 14.1982L33.0671 13.8255L30.1255 15.2741L30.3083 15.6468C30.4594 15.6608 30.6175 15.6538 30.7827 15.6257C30.9479 15.6011 31.1025 15.5694 31.2501 15.5378L33.9738 21.072C33.8473 21.1599 33.7278 21.2619 33.6153 21.3815C33.5028 21.501 33.4009 21.6241 33.3096 21.7506L33.4923 22.1233ZM185.743 48.0789C186.411 50.2764 186.811 52.5232 186.913 54.8051H163.655C163.381 48.325 161.652 42.1368 158.728 36.4478C163.216 34.6124 167.363 32.5802 171.123 30.365L168.586 28.389C165.177 30.4213 161.427 32.3024 157.382 34.0042C152.76 26.1669 145.812 19.3915 137.258 14.2369L124.392 11.4487C126.005 12.0429 127.587 12.6828 129.126 13.3755C125.858 14.7889 122.22 15.9774 118.277 16.9091C116.284 14.04 114.067 11.5858 111.681 9.61684L107.512 9.47971C110.616 11.3292 113.469 14.026 115.989 17.4154C115.23 17.5701 114.457 17.7143 113.68 17.8514V19.9997C114.886 19.7501 116.081 19.4864 117.24 19.191C121.345 25.3828 124.385 33.5049 125.875 42.6958C121.914 43.3252 117.838 43.8175 113.68 44.1761V46.5987C117.957 46.2435 122.153 45.7583 126.227 45.136C126.627 48.2582 126.852 51.4895 126.873 54.8016H68.5799C68.6045 51.4895 68.826 48.2582 69.2266 45.136C73.2998 45.7583 77.4925 46.2435 81.773 46.5987V44.1761C77.6084 43.8175 73.5352 43.3252 69.5816 42.6958C71.0646 33.5049 74.1081 25.3828 78.2129 19.191C79.3797 19.4864 80.5711 19.7501 81.773 19.9997V17.8514C80.9963 17.7143 80.2231 17.5701 79.464 17.4154C81.9276 14.0928 84.7216 11.4382 87.751 9.59574L83.5337 9.81725C81.2353 11.7476 79.0985 14.1385 77.1726 16.9126C73.2295 15.9809 69.5851 14.7925 66.3237 13.379C67.3218 12.929 68.341 12.5035 69.3672 12.0992L58.2792 14.1912C49.6865 19.3493 42.7034 26.1423 38.068 34.0077C34.3181 32.4255 30.8248 30.692 27.6196 28.8285L25.1736 30.8573C28.7126 32.8825 32.5749 34.7531 36.7219 36.4513C33.798 42.1403 32.0724 48.3285 31.7983 54.8086H8.53998C8.6419 52.5021 9.04606 50.2307 9.72785 48.0156L1.7818 45.7056C0.615019 49.0388 0 52.481 0 56.0006C0 85.8237 43.7542 110 97.7284 110C151.695 110 195.45 85.8237 195.45 56.0006C195.45 52.815 194.947 49.6893 193.991 46.6584L185.743 48.0789ZM160.928 54.8051H128.919C128.891 51.384 128.662 48.0438 128.251 44.816C138.393 43.1424 147.791 40.646 156.12 37.4745C158.963 42.8435 160.647 48.6837 160.928 54.8051ZM119.405 18.6109C123.629 17.4119 127.527 15.9211 131.003 14.2615C141.226 19.2543 149.513 26.4763 154.76 35.0695C146.754 38.2058 137.701 40.6847 127.899 42.3653C126.423 33.1849 123.436 25.0171 119.405 18.6109ZM64.454 14.2615C67.9228 15.9211 71.8202 17.4119 76.048 18.6109C72.0135 25.0171 69.0263 33.1849 67.5537 42.3689C57.7521 40.6882 48.6955 38.2058 40.6932 35.073C45.9402 26.4763 54.2271 19.2543 64.454 14.2615ZM39.3261 37.4745C47.6623 40.646 57.0562 43.1424 67.2023 44.816C66.7876 48.0438 66.5627 51.3875 66.5346 54.8051H34.5254C34.8031 48.6837 36.4865 42.8435 39.3261 37.4745ZM8.57161 57.7164H31.7737C31.9388 64.3055 33.5976 70.5957 36.5005 76.3831C31.8018 78.3627 27.4791 80.5426 23.5851 82.8948C14.6164 75.6553 9.17258 67.0164 8.57161 57.7164ZM26.1541 84.8709C29.6826 82.7085 33.5871 80.6903 37.8255 78.8479C42.6121 87.1598 50.0064 94.3044 59.1614 99.6066C46.0702 96.1996 34.7504 91.1118 26.1541 84.8709ZM72.7726 102.427C69.4796 101.312 66.3307 99.9828 63.354 98.4639C67.2515 96.4668 71.8308 94.8143 76.9056 93.5942C80.0509 98.2248 83.7692 101.811 87.8634 104.054C82.6903 103.742 77.6436 103.197 72.7726 102.427ZM79.1723 93.0879C84.8832 91.8959 91.1529 91.2384 97.7284 91.2384C104.3 91.2384 110.566 91.8995 116.277 93.0879C111.238 100.053 104.771 104.234 97.7284 104.234C90.675 104.234 84.212 100.053 79.1723 93.0879ZM122.677 102.427C117.806 103.193 112.763 103.742 107.586 104.054C111.681 101.811 115.399 98.2248 118.548 93.5942C123.622 94.8143 128.202 96.4668 132.096 98.4639C129.119 99.9828 125.974 101.312 122.677 102.427ZM119.641 91.903C122.554 87.1704 124.902 81.506 126.511 75.2088H124.382C122.751 81.3478 120.393 86.8223 117.483 91.3158C111.42 89.7617 104.743 88.8053 97.7319 88.8053C90.7136 88.8053 84.0398 89.7617 77.9739 91.3158C75.057 86.8223 72.7023 81.3478 71.0717 75.2088H68.949C70.555 81.5095 72.9027 87.1739 75.8161 91.903C70.5234 93.4219 65.7649 95.3979 61.7058 97.5849C52.5789 92.5921 45.1987 85.7499 40.4331 77.7579C42.974 76.7277 45.6309 75.7643 48.3792 74.8642V72.0865C45.16 73.0815 42.0498 74.161 39.0871 75.3318C36.2791 69.8714 34.6625 63.9328 34.4973 57.7129H66.5627C66.5838 58.5743 66.6189 59.4322 66.6716 60.2866H68.7205C68.6713 59.4358 68.6327 58.5743 68.6081 57.7129H126.856C126.828 58.5743 126.789 59.4322 126.74 60.2866H128.785C128.834 59.4358 128.869 58.5743 128.894 57.7129H160.959C160.791 63.9328 159.178 69.8714 156.366 75.3318C153.4 74.1645 150.297 73.0851 147.078 72.0865V74.8642C149.822 75.7608 152.483 76.7242 155.024 77.7579C150.262 85.7499 142.885 92.5921 133.747 97.5849C129.692 95.4014 124.933 93.4254 119.641 91.903ZM136.292 99.6066C145.447 94.3044 152.838 87.1563 157.624 78.8479C161.866 80.6903 165.767 82.712 169.299 84.8709C160.699 91.1118 149.383 96.1996 136.292 99.6066ZM171.861 82.8984C167.967 80.5461 163.641 78.3627 158.946 76.3866C161.845 70.5957 163.511 64.309 163.673 57.7199H186.875C186.277 67.0164 180.837 75.6553 171.861 82.8984ZM127.184 7.06768L125.286 6.73366L126.382 4.83499L126.783 3.93137L126.804 3.93488L126.846 4.89476L127.184 7.06768ZM136.202 11.6245C136.03 11.526 135.85 11.4381 135.668 11.3608L136.205 9.25467C136.237 9.27225 136.293 9.28983 136.374 9.31444C136.451 9.33905 136.536 9.36367 136.623 9.38828C136.679 9.40437 136.734 9.41896 136.787 9.43304C136.815 9.44048 136.843 9.44778 136.869 9.45508C136.947 9.47266 137.003 9.48673 137.038 9.49727C137.418 9.59221 137.801 9.63792 138.184 9.6344C138.567 9.62737 138.922 9.56056 139.245 9.43399C139.572 9.30741 139.853 9.11051 140.096 8.85032C140.338 8.59013 140.51 8.24908 140.616 7.83418C140.725 7.39819 140.732 7.01143 140.637 6.6774C140.538 6.34338 140.377 6.05154 140.141 5.80542C139.906 5.5593 139.621 5.35537 139.284 5.19011C138.946 5.02486 138.592 4.89828 138.219 4.80335C137.917 4.72599 137.579 4.65567 137.21 4.59238C136.841 4.52909 136.514 4.46229 136.233 4.39197L134.901 4.05794L134.799 4.45877C134.901 4.55722 135.021 4.65216 135.154 4.74357C135.291 4.83499 135.436 4.91234 135.59 4.98267L134.083 10.9635C133.935 10.9564 133.78 10.96 133.615 10.9705C133.453 10.981 133.295 11.0092 133.141 11.0514L133.039 11.4522L136.557 12.3382L136.659 11.9374C136.529 11.8284 136.374 11.7229 136.202 11.6245ZM137.432 5.34833C137.516 5.35537 137.629 5.37998 137.769 5.41514C138.219 5.53117 138.549 5.7562 138.76 6.09374C138.968 6.43128 138.999 6.88133 138.859 7.4439C138.781 7.73925 138.676 7.98186 138.539 8.17172C138.402 8.36159 138.247 8.50575 138.075 8.6042C137.908 8.70181 137.722 8.76181 137.53 8.78C137.337 8.8011 137.147 8.78703 136.957 8.73781C136.88 8.72023 136.778 8.6921 136.652 8.65694C136.525 8.62178 136.434 8.58662 136.374 8.54794L137.182 5.33427C137.267 5.33427 137.347 5.33779 137.432 5.34833ZM141.776 8.11898C141.477 8.53388 141.241 9.00854 141.073 9.55002C140.904 10.0915 140.823 10.6154 140.837 11.1182C140.844 11.628 140.943 12.0992 141.136 12.5281C141.326 12.9571 141.614 13.3368 141.99 13.6603C142.369 13.9873 142.84 14.2369 143.41 14.4162C143.979 14.5955 144.51 14.6588 145.005 14.6096C145.501 14.5604 145.947 14.4127 146.348 14.1701C146.748 13.9275 147.096 13.597 147.395 13.1856C147.69 12.7707 147.926 12.2961 148.094 11.7546C148.263 11.2131 148.344 10.6892 148.337 10.1794C148.33 9.66956 148.231 9.20193 148.042 8.77297C147.852 8.34401 147.567 7.96779 147.191 7.64432C146.812 7.31732 146.341 7.06768 145.771 6.88837C145.202 6.70905 144.671 6.64576 144.176 6.69498C143.68 6.74772 143.231 6.89188 142.826 7.13449C142.422 7.3771 142.074 7.70761 141.776 8.11898ZM142.556 11.3713C142.605 10.9705 142.7 10.5486 142.84 10.1056C142.968 9.69192 143.124 9.28775 143.308 8.89603C143.477 8.53388 143.67 8.23501 143.884 8.00295C144.099 7.77089 144.338 7.60916 144.601 7.52125C144.865 7.43335 145.156 7.43687 145.476 7.53883C145.81 7.6408 146.067 7.80957 146.249 8.03811C146.432 8.27017 146.552 8.54091 146.608 8.86087C146.664 9.18083 146.664 9.53947 146.611 9.93678C146.559 10.3341 146.464 10.756 146.323 11.199C146.186 11.6456 146.024 12.0464 145.849 12.405C145.669 12.7637 145.473 13.059 145.255 13.2911C145.037 13.5232 144.798 13.6849 144.541 13.7763C144.285 13.8677 144.007 13.8677 143.708 13.7728C143.382 13.6708 143.129 13.5056 142.946 13.277C142.763 13.045 142.64 12.7707 142.577 12.4508C142.514 12.1308 142.507 11.7722 142.556 11.3713ZM147.553 15.5941L150.604 16.8001L150.755 16.4133C150.667 16.3184 150.565 16.2164 150.453 16.1075C150.34 16.002 150.21 15.9 150.07 15.8051L150.157 15.5836L154.181 12.9922L154.955 12.3734L154.536 13.1329L153.018 16.9759C152.856 16.9513 152.698 16.9443 152.544 16.9478C152.389 16.9513 152.255 16.9583 152.143 16.9689L151.992 17.3556L155.042 18.5617L155.194 18.1749C155.099 18.0589 154.993 17.9499 154.874 17.8444C154.758 17.7389 154.624 17.6404 154.48 17.5525L156.747 11.8144C156.909 11.839 157.07 11.8565 157.232 11.8706C157.394 11.8812 157.548 11.8741 157.692 11.846L157.843 11.4592L154.793 10.2532L154.642 10.64C154.81 10.8474 155.039 11.0514 155.327 11.2518L155.232 11.4944L151.271 14.047L150.446 14.6799L150.86 13.931L152.382 10.0809C152.54 10.1126 152.695 10.1266 152.846 10.1231C152.993 10.1196 153.131 10.1091 153.257 10.088L153.408 9.70121L150.358 8.4952L150.207 8.88197C150.298 9.00503 150.41 9.11754 150.54 9.21951C150.67 9.32147 150.797 9.41641 150.92 9.50431L148.653 15.2425C148.502 15.2073 148.344 15.1898 148.182 15.1862C148.017 15.1827 147.859 15.1898 147.704 15.2073L147.553 15.5941ZM153.5 9.15973C153.732 9.31796 154.002 9.4586 154.311 9.58166C154.948 9.8313 155.492 9.91568 155.953 9.8313C156.406 9.74691 156.719 9.48673 156.891 9.05425C156.775 8.9101 156.627 8.78 156.448 8.66397C156.265 8.54794 156.111 8.4741 155.984 8.43894L155.566 8.48465L155.243 9.30389C155.137 9.30038 155.011 9.27928 154.867 9.23709C154.723 9.19489 154.603 9.15622 154.508 9.11754C154.389 9.06832 154.269 9.01206 154.15 8.94526C154.03 8.88197 153.935 8.80461 153.858 8.72023L154.171 7.92912L153.897 7.60916C153.725 7.54938 153.535 7.49313 153.324 7.44039C153.113 7.38764 152.93 7.38413 152.776 7.42281C152.691 7.6408 152.663 7.85176 152.695 8.05921C152.726 8.26666 152.811 8.46356 152.948 8.64639C153.085 8.83274 153.268 9.00151 153.5 9.15973ZM156.803 19.4161L160.17 21.0651L160.356 20.6924C160.254 20.5658 160.135 20.4357 159.991 20.3091C159.847 20.179 159.699 20.0595 159.544 19.9435L162.264 14.3811L163.4 14.9366L163.206 16.9161L163.618 17.1166C163.709 16.99 163.818 16.8353 163.941 16.6489C164.199 16.2583 164.443 15.8583 164.672 15.45C164.788 15.2495 164.883 15.0702 164.96 14.912L158.725 11.8601C158.652 12.0077 158.571 12.1941 158.479 12.4121C158.388 12.6301 158.3 12.8516 158.216 13.0766C158.128 13.3016 158.051 13.5232 157.977 13.7376C157.903 13.9521 157.85 14.1314 157.812 14.2756L158.212 14.4725L159.657 13.1047L160.792 13.6603L158.072 19.2227C157.889 19.1664 157.703 19.1242 157.509 19.0996C157.316 19.075 157.14 19.0539 156.986 19.0434L156.803 19.4161ZM165.614 15.7418C165.754 16.002 165.955 16.2446 166.218 16.4696L163.066 21.7648C162.918 21.7015 162.764 21.6523 162.609 21.6241C162.451 21.596 162.293 21.5819 162.134 21.5784L161.924 21.9335L163.263 22.7317C163.324 22.7684 163.398 22.814 163.485 22.8677C163.531 22.8963 163.581 22.9272 163.635 22.9602C163.712 23.0077 163.79 23.0561 163.867 23.1044C163.944 23.1528 164.022 23.2011 164.099 23.2486C164.209 23.316 164.31 23.38 164.403 23.4391C164.441 23.4631 164.478 23.4864 164.514 23.5087L164.577 23.5483C164.663 23.603 164.72 23.6385 164.746 23.6529C165.118 23.8744 165.491 24.0397 165.863 24.1487C166.232 24.2577 166.584 24.2963 166.918 24.2717C167.251 24.2471 167.557 24.1487 167.842 23.9799C168.126 23.8111 168.365 23.5615 168.562 23.231C168.766 22.8864 168.879 22.5559 168.896 22.2359C168.91 21.916 168.857 21.6171 168.734 21.3358C168.611 21.0545 168.425 20.7943 168.179 20.5553C167.933 20.3162 167.652 20.1017 167.332 19.9118C167.272 19.8731 167.199 19.8309 167.111 19.7852C167.051 19.75 166.988 19.7184 166.926 19.6866C166.901 19.6739 166.876 19.6611 166.851 19.6481C166.763 19.6059 166.675 19.5637 166.587 19.5251C166.565 19.5154 166.544 19.5061 166.524 19.4973C166.463 19.4708 166.411 19.4477 166.366 19.4266L167.638 17.2924L169.321 18.298L169.103 19.9821L169.487 20.2107C169.588 20.0947 169.701 19.9646 169.824 19.8169C169.943 19.6692 170.066 19.511 170.189 19.3493C170.312 19.1875 170.432 19.0223 170.548 18.8535C170.664 18.6847 170.766 18.53 170.85 18.3859L165.825 15.3867L165.614 15.7418ZM166.26 20.1193C166.359 20.165 166.461 20.2177 166.559 20.2775C166.988 20.5342 167.23 20.8401 167.283 21.1881C167.332 21.5398 167.237 21.923 166.991 22.3344C166.735 22.7669 166.433 23.0376 166.081 23.1501C165.73 23.2626 165.371 23.2099 165.002 22.9884C164.904 22.9333 164.808 22.8746 164.714 22.8126C164.695 22.7983 164.675 22.7845 164.656 22.7708C164.623 22.7475 164.59 22.7245 164.559 22.7C164.51 22.6614 164.475 22.6332 164.454 22.6121L166 20.0208C166.074 20.0419 166.162 20.0736 166.26 20.1193ZM176.333 23.5123C176.568 23.2521 176.789 22.9954 176.993 22.7387L172.375 19.3493L172.129 19.6833C172.186 19.8134 172.266 19.9505 172.365 20.0911C172.463 20.2318 172.562 20.3584 172.664 20.4674L169.019 25.4461C168.868 25.3687 168.713 25.309 168.555 25.2668C168.397 25.2246 168.249 25.1929 168.112 25.1718L167.866 25.5059L172.621 28.9903C172.716 28.8602 172.815 28.716 172.917 28.5578C173.019 28.3996 173.117 28.2413 173.212 28.0796C173.307 27.9179 173.391 27.7596 173.472 27.6014C173.553 27.4432 173.623 27.3026 173.679 27.1725L173.317 26.9088L172.035 27.6858L170.319 26.4306L171.992 24.1451L173.064 24.9292L172.941 25.9067L173.222 26.1141C173.475 25.8293 173.732 25.5129 173.988 25.1613C174.245 24.8097 174.463 24.4792 174.646 24.1698L174.365 23.9623L173.482 24.3561L172.411 23.572L173.988 21.4167L175.633 22.6227L175.278 23.9553L175.64 24.219C175.865 24.008 176.097 23.7724 176.333 23.5123ZM175.798 31.012C175.697 30.8397 175.581 30.678 175.458 30.5233L176.937 28.9235C176.958 28.9516 176.997 28.9973 177.057 29.0571L177.243 29.2434C177.306 29.3102 177.366 29.37 177.426 29.4227C177.482 29.479 177.524 29.5177 177.552 29.5423C177.84 29.806 178.153 30.031 178.49 30.2103C178.828 30.3897 179.169 30.5022 179.517 30.5444C179.865 30.5865 180.205 30.5514 180.543 30.4389C180.88 30.3228 181.193 30.1119 181.485 29.7954C181.79 29.4649 181.98 29.1309 182.058 28.7898C182.135 28.4488 182.131 28.1148 182.043 27.7878C181.949 27.4465 181.795 27.1249 181.587 26.8384C181.369 26.5325 181.119 26.2477 180.838 25.9876C180.61 25.7731 180.35 25.5516 180.054 25.3195C179.759 25.0839 179.506 24.8695 179.292 24.6726L178.283 23.7408L178.002 24.0432C178.048 24.1887 178.107 24.3298 178.178 24.4651C178.255 24.6093 178.343 24.7499 178.445 24.8835L174.256 29.4122C174.129 29.3348 173.989 29.2645 173.841 29.1942C173.693 29.1274 173.539 29.0746 173.384 29.0395L173.103 29.3419L175.767 31.8066L176.048 31.5042C175.985 31.346 175.904 31.1843 175.798 31.012ZM179.886 26.093C179.956 26.1423 180.044 26.2161 180.149 26.3145C180.494 26.631 180.673 26.9861 180.69 27.3799C180.712 27.7772 180.522 28.1886 180.128 28.614C179.921 28.8391 179.71 29.0008 179.499 29.1028C179.288 29.2012 179.081 29.2575 178.884 29.261C178.687 29.2645 178.497 29.2294 178.322 29.1555C178.146 29.0817 177.984 28.9762 177.84 28.8426C177.797 28.8047 177.747 28.7558 177.687 28.6974C177.663 28.6746 177.639 28.6503 177.612 28.6246C177.517 28.5332 177.454 28.4558 177.422 28.3961L179.671 25.9629C179.745 26.0016 179.815 26.0438 179.886 26.093ZM180.518 36.0153C180.448 35.843 180.367 35.6743 180.276 35.5161L185.055 31.5851L186.148 32.9142L185.112 34.6581L185.396 35.0027C185.554 34.9113 185.734 34.8023 185.927 34.6792C186.12 34.5562 186.317 34.4226 186.51 34.2819C186.704 34.1413 186.89 34.0006 187.069 33.8635C187.248 33.7264 187.406 33.6033 187.54 33.4908L183.997 29.1801L183.678 29.4438C183.706 29.5985 183.748 29.7532 183.808 29.908C183.867 30.0591 183.931 30.2033 184.001 30.3334L179.239 34.2538C179.025 34.0745 178.754 33.9092 178.427 33.7651L178.107 34.0288L180.378 36.7889L180.697 36.5252C180.645 36.3599 180.585 36.1911 180.518 36.0153ZM181.182 37.4886L182.55 39.8056L182.905 39.5982C182.894 39.2571 182.827 38.9301 182.694 38.6207L184.511 38.2937L185.741 40.3788L184.57 41.8028C184.472 41.6938 184.356 41.5848 184.226 41.4758C184.096 41.3668 183.966 41.2683 183.839 41.1839L183.484 41.3949L185.217 44.3343L185.572 44.1233C185.579 43.9933 185.572 43.8491 185.544 43.6979C185.519 43.5432 185.481 43.399 185.431 43.2584L190.095 37.3303L189.684 36.6342L182.202 37.7839C182.11 37.689 182.008 37.594 181.892 37.5061C181.776 37.4147 181.66 37.3409 181.537 37.2776L181.182 37.4886ZM186.24 39.8197L185.259 38.1566L187.417 37.7628L188.366 37.4815L188.376 37.4991L187.674 38.1531L186.24 39.8197ZM102.33 26.5642H112.16V33.4556H102.33V42.9841H93.681V33.4556H83.8478V26.5642H93.681V17.0322H102.33V26.5642ZM74.3167 64.7731H72.9004V72.7124H74.3062V66.394L77.2056 70.2195H77.933L80.9519 66.3835V72.7124H82.3436V64.7731H80.9238L77.6273 68.9221L74.3167 64.7731ZM89.7379 64.7731H83.6088V72.7124H89.8679V71.7314H85.127V68.6162H89.6043V67.5121H85.127V65.7576H89.7379V64.7731ZM95.2906 65.8033L93.0871 71.7419H97.2446V65.7787L95.2906 65.8033ZM90.5532 72.2834C90.7008 71.6681 91.6743 71.7032 91.6743 71.7032L93.7408 65.8033L92.813 65.7682V64.7872H98.7347V71.7419H99.3252C99.3252 71.7419 100.039 71.64 100.039 72.4276C100.039 73.2257 99.3111 74.7095 99.3111 74.7095H97.7191L98.443 72.7124H92.0363L92.7392 74.7095H91.2034C91.2034 74.7095 90.4091 72.8987 90.5532 72.2834ZM115.203 64.7837V71.7173V71.7208H111.007V64.7872H109.348V72.7124H116.532L115.899 74.5829L117.372 74.6602C117.372 74.6602 118.233 72.3924 118.015 72.0302C117.797 71.6681 116.858 71.7173 116.858 71.7173V64.7837H115.203ZM124.745 66.278V72.7124H126.112V64.7731H124.555L120.492 68.915V64.7731H118.886V72.7124H120.38L120.443 70.4023L124.745 66.278ZM106.776 66.2393V72.7124H108.139V64.7731H106.593L102.523 68.915V64.7731H100.921V72.7124H102.411L102.474 70.4375L106.776 66.2393ZM133.499 67.477V64.7626H134.884V72.7124H133.499V68.8447H129.278V72.7124H127.89V68.9185H127.166V67.5051H127.89V64.7626H129.278V67.5051L133.499 67.477ZM139.772 64.7133H141.593L145.329 72.7124H143.656L141.899 68.7357H139.512L137.745 72.7124H136.072L137.91 68.7357H136.862V67.6106H138.426L139.772 64.7133ZM140.63 65.9826L139.888 67.5613H141.459L140.63 65.9826ZM53.7751 64.7133H55.5955L59.3313 72.7124H57.6585L55.9048 68.7357H53.5185L51.7508 72.7124H50.0779L51.916 68.7357H50.8687V67.6106H52.4326L53.7751 64.7133ZM54.6326 65.9826L53.8911 67.5613H55.462L54.6326 65.9826ZM63.4186 64.6922C64.6029 64.6922 65.5975 65.0896 66.3742 65.8666C67.1438 66.6401 67.5339 67.6281 67.5339 68.8025C67.5339 69.9769 67.1438 70.9649 66.3777 71.7349C65.601 72.5119 64.6064 72.9057 63.4186 72.9057C62.2377 72.9057 61.2467 72.5119 60.477 71.7349C59.7109 70.9684 59.3243 69.9804 59.3243 68.8025C59.3243 67.6211 59.7144 66.6331 60.4805 65.8631C61.2537 65.086 62.2413 64.6922 63.4186 64.6922ZM61.5278 70.8137C62.0339 71.3376 62.6524 71.5907 63.4186 71.5907C64.1882 71.5907 64.8068 71.3376 65.3093 70.8137C65.8224 70.2828 66.0719 69.6253 66.0719 68.799C66.0719 67.9833 65.8154 67.3047 65.3128 66.7808C64.8103 66.2569 64.1917 66.0037 63.4186 66.0037C62.6524 66.0037 62.0339 66.2604 61.5278 66.7843C61.0253 67.3082 60.7687 67.9833 60.7687 68.799C60.7687 69.6253 61.0182 70.2828 61.5278 70.8137Z" fill="white"/>
</svg>