<svg xmlns="http://www.w3.org/2000/svg" viewBox="0 0 200 200">
  <path d="M0 0h200v200H0V0z" fill="#275d81" fill-rule="evenodd"/>
  <path d="M83.9 162.4v-10h-1.5l-2 1.7v1.6l2-1.8v8.5H84zm15.8-90.3v3h1.6v-3h-1.6zm-2.2 3.3V72c-6-.5-11.8-2.7-16.6-6.4l-.5-.3-.2-.3a33 33 0 0 1-10-13.2h2.7A32.4 32.4 0 0 0 81 62.4l.6.5a29.2 29.2 0 0 0 36.9 0 32 32 0 0 0 8.6-11h2.8a34.7 34.7 0 0 1-10 13 31.8 31.8 0 0 1-16.4 7v3.6c1.7.4 3.4 1.4 4.7 2.8 2.1 3-.8 4.2-4.7 4.6v9.5c2.7.8 5.7 3.5 4.6 6-.6 1.3-2.5 2.1-4.6 2.5v3.6c3 .3 6 1.1 8.8 2.2v.2H88.6v-.1a30 30 0 0 1 8.9-2.3v-3.8l-1.5-.5a8.8 8.8 0 0 1 .7-1.4l.8.4v-1.3c.7-.4 1.4-.8 2.2-1v2.8h1.6v-3h2.2v2.9c2.1-.5 3.5-1.6 2.4-2.8-.9-1.5-7.8-1.2-9.4 1.2l-.4.5c0 .2-.2.3-.3.5l-.5 1c-.5 1.3.2 2.1.4 4a33 33 0 0 0-2.5.5c-.4-1.4-1.2-2.9-1-5.3a5.3 5.3 0 0 1 .6-1.9 10 10 0 0 1 4.7-4.4v-10A21 21 0 0 1 93 82a13.8 13.8 0 0 1 1.8-1.3l2.7.3v-1.3c.7-.3 1.4-.5 2.2-.5v2h1.6v-2c.7 0 1.4.2 2.2.4v1.5c1.7 0 2.8-.3 2.4-.9l-.2-.2c-3.2-2.4-7.5-1.8-10.7-.2-.5.2-1 .6-1.7 1.1l-1.7 1.6c-4.1 3.8-4 11.6.6 14.4a6.7 6.7 0 0 0-.5 1.3C85.6 94.5 83 87 88.4 81l.5-.6.5-.4.4-.4 1.1-1c2-1.6 4.2-2.7 6.6-3.2zm2.2 7.6v9.2l1.6-.1V83h-1.6zm0 18v3.4h1.6v-3.3h-1.6zm-46.3 44.4v-21.2h-3.6l-7 13.2-7-13.2h-3.7v21.2h3.7v-14.2l5.7 10.4h2.7l5.6-10.4v14.2h3.6zm96.3 0v-21.2h3.6V139l11.2-15h3.4v21.3h-3.7v-15l-11.2 15h-3.3zm-3.3 0l-8.7-12.9 7.9-8.3H141l-9.9 10.7v-10.7h-3.6v21.2h3.6v-6.2l4-4.2 6.9 10.4h4.3zm-42.8 0v-21.2h3.7V139l11.1-15h3.4v21.3h-3.7v-15l-11.1 15h-3.4zm-6.1 0v-21.2h-3.7v9H84v-9h-3.6v21.2H84v-9.3h9.8v9.3h3.7zm-22-10.6a71.6 71.6 0 0 0-.3-5 6.3 6.3 0 0 0-2-3.5 8.8 8.8 0 0 0-2.9-1.7 10.4 10.4 0 0 0-9.9 1.7 6.3 6.3 0 0 0-2 3.5 67.7 67.7 0 0 0 0 10 6.3 6.3 0 0 0 2 3.5c.9.8 1.8 1.3 2.9 1.7a10.4 10.4 0 0 0 7 0c1-.4 2-1 2.8-1.7a6.3 6.3 0 0 0 2-3.5c.2-.7.3-1.4.3-2.2v-2.8zm-3.7 0a50.3 50.3 0 0 1-.3 4.5c0 .5-.2.9-.4 1.2l-.7.9-1.6 1a5.9 5.9 0 0 1-4 0c-.7-.3-1.2-.6-1.6-1a3.7 3.7 0 0 1-1.2-2.1l-.2-1.8a50 50 0 0 1 .2-7.2l.4-1.2.8-.9c.4-.4 1-.7 1.6-1a5.8 5.8 0 0 1 4 0l1.6 1a3.7 3.7 0 0 1 1.1 2.1l.2 1.8v2.7zM92 109.1l1-1.4h2c-.7 1-1.8 1.6-2.8 3-1 1.1 1.4 3.9.1 2.9-1.3-1-1.9-3.1-.3-4.5zm-2.3-30.3A16 16 0 0 1 81 66.6a60.5 60.5 0 0 1-4.5-4.1v2.4c.2 7.5 5.3 12.1 11.8 15.2l1-1 .4-.3zM81 61.6c1.7-11.2 13-22 26.4-17.7 5.8 1.8 11 12.5 1.7 11.2-1-.2-2.4-.7-3.8-1.4.9-3.2-18-10.5-8 3.3 3.7 4 4.3.4 6.5 1.6 1.4.8 4.8 1.6 6.6 1.6 7 0 10.2-4.6 7.8-11.7-2.8-8.4-12.6-12.2-20.3-10.7a27.5 27.5 0 0 0-20.7 20 35.3 35.3 0 0 0 3.8 3.8zm17.4-9.3v-1c0-.4 1-.1 1.3.4.2.2.3 1 0 1-.1.2-.5.1-.9 0l-.4-.3v-.1s-.2-.1 0 0zm7.5 28zm-8.2 73.4v-1.3h-6v2.8h1.4v-1.5h3.1l-3.4 8.7h1.6l3.3-8.7zm12.1 0v-1.3h-6v2.8h1.5v-1.5h3l-3.4 8.7h1.6l3.3-8.7zm12 5.4v-1l-.3-.9-.5-.8a2 2 0 0 0-.8-.5 3 3 0 0 0-1-.2 3 3 0 0 0-1 .2c-.3 0-.5.2-.7.4v-2.6h4.1v-1.3h-5.4v5.5h1.3c0-.2.2-.4.3-.5l.4-.3.7-.1c.4 0 .7 0 1 .2l.4.8.1 1v.7l-.2.6c0 .2-.1.4-.3.5l-.4.3-.6.1c-.5 0-.8-.1-1-.4-.3-.2-.4-.5-.5-1H116v.7a2.7 2.7 0 0 0 .7 1.2l.6.4.7.3a3.7 3.7 0 0 0 1.8 0 2.9 2.9 0 0 0 1.2-.7l.5-.8c.2-.2.2-.5.3-.8v-1" fill="#fff"/>
</svg>
